<?xml version="1.0" encoding="UTF-8" standalone="no"?>
<svg id="svg4136" xmlns:rdf="http://www.w3.org/1999/02/22-rdf-syntax-ns#" xmlns="http://www.w3.org/2000/svg" height="698" viewBox="0 0 435 698" width="435" version="1.1" xmlns:cc="http://creativecommons.org/ns#" xmlns:dc="http://purl.org/dc/elements/1.1/">
<path id="path4146" d="m287.22 695.17c-8.8228-2.8485-9.4218-3.4276-12.074-11.672-0.96343-2.9949-1.0242-5.1307-0.24204-8.5 1.7178-7.3991 1.445-10.016-1.0149-9.7382-3.2325 0.36519-4.8559-2.8327-2.3694-4.6676 1.6191-1.1948 1.7436-1.6971 0.68628-2.7685-1.0643-1.0785-1.4362-1.075-2.1131 0.0202-0.93741 1.5168-5.8595 1.1827-5.0953-0.34585 0.275-0.55 1.4-1.0355 2.5-1.079 3.7731-0.14895 4.6172-0.42243 4.0644-1.3168-0.53783-0.87023-13.231-1.618-44.064-2.596-14.281-0.45299-51.995-2.6479-70.75-4.1176-6.3489-0.49752-8.75-1.0568-8.75-2.0382 0-1.6409-2.0948-1.6499 22.279 0.0957 11.121 0.7965 26.746 1.7108 34.721 2.0317 7.975 0.32095 23.95 1.0075 35.5 1.5256 27.017 1.2119 30.399 1.2162 28.532 0.0355-1.9552-1.2365-9.8804-1.8701-31.532-2.5208-9.9-0.29751-21.375-0.75256-25.5-1.0112-4.125-0.25867-13.8-0.71047-21.5-1.004-28.506-1.0867-35.649-1.7296-36.237-3.2618-0.84189-2.1939 1.6348-3.1512 5.1208-1.9791 1.7138 0.57619 11.666 1.4067 22.116 1.8455 10.45 0.43883 22.6 0.99271 27 1.2308 4.4 0.23814 16.55 0.73641 27 1.1073 10.45 0.37086 22.004 1.0957 25.675 1.6107 6.4645 0.90694 9.8251 0.55021 9.8251-1.0429 0-2.6222-4.8714-3.4241-27.5-4.527-40.129-1.9558-51.553-2.4624-55.809-2.4746-3.2653-0.009-4.5889-0.37002-4.1232-1.1234 0.4784-0.77406 4.9567-0.93146 14.809-0.52052 7.7678 0.324 22.223 0.83116 32.123 1.127 9.9 0.29586 21.938 0.78888 26.75 1.0956 5.748 0.36633 8.75 0.20089 8.75-0.48222 0-2.2076-4.2192-3.0075-21.548-4.0853-24.952-1.5519-25.916-3.4857-1.2934-2.5948 13.344 0.4828 18.855 0.35633 19.35-0.44405 1.1606-1.8778 0.19003-2.0943-15.474-3.4511-20.04-1.7359-20.446-2.9189-0.78499-2.2867 8.6625 0.27854 15.75 0.347 15.75 0.15214s-1.094-1.0711-2.4311-1.9472c-2.5031-1.6401-3.5879-1.79-21.819-3.0153-6.0082-0.40381-10.75-1.163-10.75-1.7212 0-0.88605 15.507-0.43579 29.27 0.84988l3.7699 0.35216-2.408-3.2094c-6.2122-8.2795-7.9551-13.558-8.2975-25.128-0.29387-9.93-0.54992-11.192-2.8287-13.943-1.37-1.66-2.5-3.87-2.5-4.9 0-3.8183-1.9731-6.1605-3.4678-4.1164-1.2138 1.6599-1.4534 1.5528-3.2928-1.4718-1.6037-2.6371-2.1056-2.9444-2.62-1.6039-0.39486 1.029-1.2504 1.4224-2.2549 1.037-0.95578-0.36676-2.1809 0.10264-2.9916 1.1462-1.6128 2.0761-3.4376 0.41958-5.9645-5.4142-0.75796-1.7499-1.828-3.4597-2.378-3.7996-1.1835-0.73145 5.5392 13.574 6.7715 14.409 4.6205 3.1316-3.9952 11.821-10.509 10.599-2.0489-0.38438-4.935-1.5602-6.4135-2.613-1.48-1.05-4.08-1.91-5.78-1.91-3.5384 0-3.5165 0.0376-1.8456-3.1741 0.89935-1.7287 1.1415-6.8803 0.86311-18.364-0.39872-16.449-2.1912-16.379-3.4749 0.136-0.62457 8.0354-3.8209 19.217-5.6284 19.69-3.0499 0.79757-12.98-0.54593-14.111-1.9092-0.63-0.76-1.75-1.38-2.5-1.38-0.74498 0-2.0696-1.0913-2.9435-2.4252-1.8-2.74-6.21-4.57-11.03-4.57h-3.2706l0.56452 9.4622c0.81969 13.739-1.6687 23.514-8.4519 33.202-1.3425 1.9173-2.1797 5.235-2.5842 10.241-0.32908 4.0726-1.0687 7.8751-1.6435 8.45-0.57486 0.57486-1.0554 2.1927-1.0679 3.5952s-1.5875 5.4541-3.5 9.0036c-2.7534 5.1102-3.4531 7.5041-3.3613 11.5 0.0638 2.7755 0.33226 4.2046 0.59657 3.1757 0.43539-1.6948 1.2001-1.8113 8.134-1.2384 10.422 0.86092 36.955 2.4516 52.153 3.1266 29.786 1.3228 29.994 4.0153 0.25 3.2323-16.388-0.43142-18.753-0.34902-11.25 0.392 19.577 1.9335 15.325 3.8699-7.4727 3.4027-9.4956-0.19458-13.745-0.0604-9.6059 0.30335 14.118 1.2409 10.537 3.5421-4.5382 2.9159-7.0857-0.2943-11.083-0.24902-8.8831 0.10062 6.5729 1.0446 4.5621 2.6145-3.75 2.9278-5.3316 0.20093-7.75 0.67799-7.75 1.5288 0 0.70168-3.5693 2.2043-8.25 3.4732-19.623 5.3195-27.378 5.7203-34.925 1.8051l-4.82-2.5-7.25 1.9813c-15.188 4.1505-17.16 4.396-23.924 2.9774-3.4791-0.72965-9.5005-1.3996-13.381-1.4887-20.372-0.46787-23.609-15.36-3.75-17.254 5.6884-0.54242 6.4483-0.90623 9.2971-4.4513 1.706-2.12 3.981-3.86 5.055-3.86 1.327 0 1.953-0.68 1.953-2.13 0-2.6213 3.7325-8.8548 5.3316-8.904 8.7606-0.26964 13.324-16.313 10.667-37.502-2.0763-16.558-1.8957-30.055 0.53134-39.725 0.60546-2.4124 0.36285-2.6575-3.1873-3.2203-10.761-1.71-11.676-3.65-7.771-16.52 4.1857-13.792 4.293-14.235 4.984-20.57 0.71804-6.5834-0.79376-26.27-3.1816-41.43-0.82298-5.225-1.4925-15.483-1.4879-22.796 0.0062-9.8607-0.48768-15.236-1.9116-20.803-5.6537-22.106-5.9598-42.41-0.86278-57.225 1.1667-3.391 1.6639-6.7976 1.3219-9.0556-0.96447-6.366 4.0564-37.752 8.0177-50.12 3.7291-11.642 5.2945-17.984 6.0481-24.5 0.65419-5.6563 5.4885-19.636 9.5298-27.557 3.8275-7.5024 5.9667-15.082 4.8471-17.174-0.58312-1.0896-1.091-4.0136-1.1285-6.4979-0.0432-2.8572-0.7413-5.2984-1.9-6.6439-6.97-8.1-17.536-17.39-27.348-24.06-3.85-2.62-8.125-5.79-9.5-7.05s-4.075-3.08-6-4.05c-12.786-6.43-22.276-20.74-25.513-38.47-3.166-17.33-3.987-19.42-10.009-25.39-5.935-5.89-6.102-6.51-4.588-17.11 0.59292-4.1494 0.31674-5.8145-1.6235-9.7875-2.3047-4.7194-2.2919-6.724 0.04278-6.7006 1.5713 0.0158 6.7531 12.192 5.7386 13.485-12.763 16.263 14.972 21.985 31.464 6.4918 1.1645-1.094 2.5746-1.989 3.1338-1.989 2.7733 0 3.6863-4.8186 2.1255-11.218-0.84283-3.4553-1.31-7.7448-1.0382-9.5323 0.60961-4.0087-0.51134-4.1411-7.3063-0.86308-12.685 6.12-33.428 6.68-33.428 0.91 0-1.5226 3.5962-1.7623 4.5-0.3 0.83143 1.3453 11.008 1.2654 19.602-0.15396 10.689-1.77 20.378-12.222 13.673-14.756-3.02-1.141-3.407-0.799-4.116 3.638-1.03 6.438-7.174 9.268-20.156 9.268-13.728 0-17.389-2.33-16.332-10.396 0.213-1.628-0.582-3.256-2.4269-4.965-3.2537-3.016-3.8166-10.073-1.1303-14.172 1.1273-1.721 1.4032-3.444 0.9167-5.715-0.3834-1.789-0.7721-5.052-0.8638-7.252s-0.9045-5.042-1.8062-6.315c-1.7846-2.519-1.4403-5.688 0.9139-8.411 1.3323-1.541 1.2623-2.261-0.6533-6.714-2.7264-6.338-6.8104-23.623-6.5114-27.56 0.12529-1.65 0.26438-3.7329 0.30906-4.6287 0.21484-4.3074 37.458-9.0903 47.581-6.1105 6.113 1.7993 1.582 2.5834-13.521 2.3398-25.464-0.4107-35.854 3.2256-31.026 10.858 0.8045 1.271 1.7989 1.242 7.735-0.23 7.872-1.952 21.225-2.466 33.062-1.273l8.25 0.832v-3.085c0-3.7515 1.724-5.1235 2.796-2.2254 2.957 7.9944-5.961 42.022-11.013 42.022-1.6848 0-0.21733 7.5811 2.0965 10.831 4.1823 5.8735 6.0527 16.859 3.6535 21.459-1.3934 2.6714-1.3404 2.8393 1.2562 3.9769 5.5005 2.4098 7.0181 6.6397 7.08 19.734 0.03517 7.44 5.4957 19.584 11.789 26.219 5.3513 5.6416 9.3562 12.945 10.847 19.781 1.7837 8.178 10.344 21 14.021 21 0.84936 0 2.6247 0.70789 3.9451 1.5731 1.3205 0.8652 5.6921 2.0073 9.7148 2.5381 9.5032 1.2538 12.513 2.443 17.055 6.7395l3.7415 3.5386-2.0266 2.1572c-1.1146 1.1865-2.9217 5.3202-4.0157 9.1861s-4.2282 10.754-6.9649 15.308c-8.3176 13.839-6.696 19.46 3.5989 12.474 6.1253-4.1567 19.214-4.1129 20.819 0.0698 1.5379 4.0078-2.8407 15.416-5.9168 15.416-1.9149 0-1.901-2.4032 0.0231-4 7.7938-6.4682-3.8089-10.131-15.641-4.938-13.635 5.9843-15.214-0.14198-5.3-20.562 2.4032-4.95 4.7798-10.877 5.2814-13.172 0.5016-2.2944 1.8678-5.5139 3.0359-7.1544 5.3653-7.5348 0.76521-10.759-14.619-10.246-6.724 0.22413-8.353-0.0132-8.8424-1.2884-0.32991-0.85974-1.533-1.8593-2.6735-2.2213-1.1405-0.36198-3.3448-2.0499-4.8985-3.7509-7.217-7.91-21.836 0.4-21.836 12.42 0 5.6034-1.547 7.2329-3.0682 3.2317-1.3082-3.441-0.43384-8.7074 2.1945-13.218 2.7147-4.6583 1.0382-6.3401-3.1981-3.2081-3.6125 2.6708-4.8002 2.1881-2.5435-1.0339 2.771-3.95 9.58-7.86 13.706-7.86 6.1905 0 6.3688-3.2202 0.35752-6.4575-3.5189-1.8951-4.1528-4.1625-1.0914-3.9036 2.3046 0.19489 2.054-1.9717-1.0205-8.8224-3.7421-8.3385-6.8456-9.8807-12.828-6.3747-2.401 1.41-4.848 2.56-5.437 2.56-2.2043 0-0.9467-1.7021 2.823-3.8208 2.1422-1.204 4.1531-2.8618 4.4686-3.6841 0.77141-2.0103 0.69009-1.9836-5.7094 1.8699-3.0735 1.8508-6.953 3.9304-8.6212 4.6213-3.9127 1.6207-3.9165 3.3703-0.0061 2.7964 4.7156-0.6921 2.9643 1.5569-1.9727 2.5332-2.8366 0.56096-4.6565 0.48176-5.3721-0.23379-0.595-0.59-2.342-1.08-3.882-1.08-5.117 0-3.0833-2.5938 3.45-4.4 5.7247-1.5826 19.209-8.4747 18.32-9.3637-0.20816-0.20815-3.009 0.97294-6.2241 2.6247-3.215 1.65-8.321 3.75-11.346 4.65-3.025 0.90661-6.5337 2.0622-7.7971 2.568-1.2634 0.50576-3.5134 0.96443-5 1.0192l-2.7029 0.0997 2.4977 0.69486c2.0847 0.57997 2.6318 1.5376 3.309 5.7915 0.78974 4.9614 0.94712 5.1531 5.9327 7.225 6.3106 2.6226 5.469 4.9561-0.96835 2.6849-5.4726-1.9309-5.7324 1.836-1.2698 18.409 2.546 9.46 15.132 23 21.377 23 0.07429 0-0.02597-2.025-0.22282-4.5-0.4633-5.8252 1.2204-5.7972 2.8568 0.0477 0.7003 2.5012 2.4601 5.7637 3.9107 7.25 6.7607 6.9272 18.222 16.541 24.576 20.615 5.3876 3.4543 7.6533 5.6629 9.8363 9.5885 2.3016 4.1389 3.1004 4.8813 4.2373 3.9377 3.4724-2.8818 4.6774-0.36183 3.9789 8.321-0.95521 11.875-2.0931 16.03-7.4606 27.241-3.4081 7.1183-5.8742 14.468-8.5563 25.5-2.072 8.53-4.783 18.88-6.025 23-4.9346 16.396-5.5106 18.834-6.5745 27.833-1.1638 9.8439-0.93019 11.238 1.5402 9.1873 3.3595-2.7882 5.9932 3.3665 3.4634 8.0936-0.58344 1.0902-2.1584 2.3994-3.5 2.9095-1.617 0.62-2.439 1.71-2.439 3.25 0 1.2749-1.2339 6.3485-2.742 11.275-3.9305 12.839-3.8936 34.104 0.08466 48.719 2.3642 8.6856 2.6582 11.554 2.6649 26 0.0042 8.9306 0.4425 18.938 0.97411 22.238s1.6005 12.997 2.3754 21.548c1.8408 20.315 0.98248 29.395-4.4758 47.351-1.8704 6.153 0.67003 8.5758 9.0125 8.5952 2.7391 0.006 2.5634-12.151-0.27695-19.162-1.5294-3.7752-0.8199-12.518 1.388-17.102 1.0733-2.2284 1.1054-4.0088 0.16447-9.1153-0.64312-3.4903-1.1707-7.8691-1.1723-9.7307-0.0017-1.8616-0.95717-8.1097-2.1233-13.885-1.8831-9.3254-2.0893-13.297-1.8431-35.5 0.60242-54.318 0.528-55.646-2.8824-51.435-2.2373 2.763-4.8253 2.0695-5.7301-1.5355-0.73617-2.9331 1.3845-6.4672 2.6511-4.4178 0.41016 0.66366 0.51424 1.81 0.23128 2.5473-0.83278 2.1702 1.5264 1.5327 2.7434-0.74128 0.90486-1.6907 0.77054-2.3453-0.71482-3.4836-1.7467-1.3386-1.7299-1.4296 0.37538-2.0228 1.746-0.49197 2.3211-1.5872 2.7653-5.2664 1.2273-10.166 2.5744-15.357 8.471-32.645 3.3766-9.9 6.7456-19.575 7.4866-21.5 3.969-10.311 5.2872-13.315 9.7353-22.183 2.6712-5.3258 7.0654-15.676 9.765-23 7.8541-21.309 12.983-30.425 23.822-42.341 3.2113-3.5302 5.3124-6.7819 5.4108-8.3736 1.3815-22.361 1.0964-30.337-1.2829-35.883-1.1134-2.5955-2.1807-6.969-2.3716-9.719-0.19092-2.75-0.60795-4.8875-0.92673-4.75s-1.0296 0.25-1.5796 0.25-1 0.64286-1 1.4286c0 0.78572-0.67325 2.1018-1.4961 2.9247-0.82286 0.82287-1.9367 2.655-2.4752 4.0714-0.97906 2.5751-3.0286 3.5636-3.0286 1.4606 0-1.3658 5.1598-11.149 6.3268-11.997 0.46316-0.33617 0.17234-2.5862-0.64626-5-1.5674-4.622-0.38019-10.14 2.6082-12.122 0.8931-0.59236 0.7516-1.0742-0.53879-1.8347-0.9625-0.56726-1.75-1.6289-1.75-2.3593 0-0.73032-0.69249-1.9026-1.5389-2.605-1.3588-1.1277-1.2199-1.6101 1.1871-4.1224 1.4993-1.5649 2.2221-2.8453 1.6063-2.8453-2.1338 0-2.33-3.8622-0.41515-8.1709 1.0582-2.381 2.5083-5.9041 3.2225-7.8291 2.493-6.7194 11.834-18 14.906-18 0.4938 0 1.2062-0.97152 1.583-2.1589 1.6968-5.3461 12.86-12.777 19.259-12.819 4.4358-0.0294 3.2392 1.5548-1.7806 2.3575-8.04 1.27-16.02 11.6-8.97 11.6 1.9475 0 2.941 0.50669 2.941 1.5 0 2.1186 7.3121 2.0338 9.0875-0.10542 4.3259-5.2124 21.459 1.5308 22.149 8.7175 0.40062 4.1694 1.0482 5.4821 3.8722 7.8493 3.215 2.695 3.2596 2.8179 0.8591 2.3657-3.0763-0.57945-6.8906-5.8568-7.1422-9.8818-0.26-4.03-2.56-6.44-6.16-6.44-1.6632 0-4.5103-0.53745-6.3269-1.1943-2.8995-1.0485-3.796-0.91715-7.3408 1.0751-4.0187 2.2586-9.1634 2.2793-10.546 0.0423-4.5635-7.3839-19.834 4.5714-23.06 18.054-1.7807 7.4428-1.7478 7.7174 1.0073 8.4089 6.5208 1.6366 4.3346 17.614-2.4102 17.614-1.3391 0-4.0865 8.1204-3.4384 10.162 0.76086 2.3972 4.178 3.803 7.637 3.1418 1.423-0.27203 3.5065-0.003 4.6299 0.59857 1.6004 0.85649 2.3932 0.74256 3.662-0.52622 2.6393-2.6393 1.4788-4.8372-2.7388-5.187-4.3417-0.36013-4.9246-1.8546-1.098-2.815 4.5423-1.14 7.7646 1.6645 8.3943 7.306 0.60761 5.4434 1.8531 8.0773 6.5368 13.824 1.7951 2.2025 3.574 5.24 3.953 6.75 1.029 4.1-0.31706 3.3125-2.1444-1.2546-1.773-4.4312-3.27-5.0124-5.1512-2-0.85493 1.369-2.332 2-4.6815 2-3.8713 0-5.6704 1.7938-3.1909 3.1814 1.7823 0.99742 2.1876 3.3624 0.73064 4.2629-1.8182 1.1237-4.0194-0.70224-5.1627-4.2827-0.64305-2.0139-1.5648-4.0891-2.0484-4.6116-1.1778-1.2726-1.1227-6.2814 0.0771-7.023 1.6957-1.048-0.12435-3.6451-2.3336-3.3299-2.6359 0.37609-3.5017 6.7781-1.3699 10.129 0.76044 1.1955 2.4353 5.0986 3.7219 8.6736 3.8592 10.723 6.7965 12.665 14.371 9.5 5.244-2.1911 7.9484-2.0021 7.1542 0.5-2.1364 6.7313 19.003 0.81153 25.576-7.162 6.209-7.5325 7.2054-9.6417 7.5664-16.017 0.41906-7.3992 3.9795-11.8 7.0571-8.7219 1.7317 1.7317 5.0353 0.0941 5.7777-2.864 0.49476-1.9713 0.18628-3.1007-1.151-4.2142-4.86-4.0466-6.1631-8.3217-4.2282-13.872 1.3035-3.7392 3.9022-4.226 3.9022-0.73101 0 3.5643 1.0089 5.5818 2.7913 5.5818 2.4464 0 10.413-4.0245 13.377-6.7577 1.4678-1.3534 3.1356-2.1722 3.7063-1.8195 1.7915 1.1072 0.0294 3.5853-4.0175 5.6499-3.3869 1.7279-3.7581 2.2448-2.8415 3.9574 1.9328 3.6114 6.9839 0.57257 6.9839-4.2017 0-0.94964 1.5308-2.8942 3.4018-4.3213 2.9185-2.2261 3.2952-2.9791 2.6517-5.3009-0.74601-2.6915-5.0594-3.5843-5.8738-1.2158-0.17617 0.51231-1.636 0.66834-3.244 0.34674-1.608-0.32161-4.2908-0.0185-5.9618 0.67366-1.6709 0.69212-3.2904 1.006-3.5989 0.69754-1.0661-1.0661 5.5389-3.7084 9.3253-3.7306l3.7997-0.0222-2.3687-1.8216c-1.9921-1.532-2.1908-2.1541-1.25-3.912 2.1094-3.9414 1.4334-7.2219-1.4882-7.2219-1.9065 0-2.4523 0.40306-2.0314 1.5 0.66296 1.7276-0.68047 1.9349-3.3346 0.51447-2.0361-1.0897-4.0773 2.6438-4.5612 8.3427-1 11.86-12.46 10.57-12.46-1.41 0-3.0584 0.9326-3.5787 7.4926-4.1797 4.5718-0.41891 6.3175-4.7359 3.7054-9.1631l-1.9507-3.3062 2.4047 1.0976c1.3226 0.60365 2.6657 2.11 2.9847 3.3476 0.64486 2.5016 2.55 2.9348 4.194 0.95385 0.7769-0.93611 0.66118-2.4994-0.4166-5.6276-1.8203-5.2836-1.1191-6.4758 1.3046-2.218 2.1668 3.8066 2.8706 3.914 3.7108 0.56643 0.54272-2.1624-0.25273-3.5465-4.9603-8.6312-3.8939-4.2059-5.2879-6.3747-4.5631-7.0995 0.72478-0.72478-0.018-1.7649-2.4312-3.4048-1.91-1.3-3.47-2.75-3.47-3.23 0-1.5767-6.3812-3.1726-15-3.7514l-8.5-0.57082-6.5 4.434c-3.575 2.4387-7.0625 4.7739-7.75 5.1892-1.6263 0.9826-1.6263-0.9651 0-2.343 0.6875-0.58249 2.6-2.1835 4.25-3.5579 7.0789-5.8963 21.116-7.5965 30.483-3.6921 4.9284 2.0543 14.8 10.195 26.786 22.088l5.3998 5.3582-0.17617 10.142c-0.0969 5.578 0.27453 12.163 0.82538 14.633 0.55084 2.4702 0.77614 4.856 0.50065 5.3018-0.27549 0.44576-0.61604 3.0642-0.75677 5.8189-0.22828 4.4681-0.75959 5.5198-4.9249 9.7487l-4.669 4.7403 2.9881 3.9495c1.6435 2.1722 3.0006 4.9275 3.0159 6.1228 0.0394 3.0792 4.5139 8.0171 8.3106 9.1713 1.7695 0.53792 5.8658 1.7738 9.1029 2.7463 5.3446 1.6057 6.0573 2.1563 7.753 5.9897 1.6932 3.8277 2.3508 4.3374 7.0503 5.4648 7.6339 1.8314 14.56 5.7695 20.788 11.821 3.0377 2.9512 7.931 6.5129 10.874 7.9149 6.1212 2.9159 13.399 9.3169 19.393 17.056 3.5486 4.582 5.6261 6.0572 14.695 10.435 15.844 7.6482 29.085 19.17 33.756 29.373 2.4304 5.3087 4.3498 6.7872 12.57 9.683 0.97075 0.34195 2.1971 1.7583 2.7252 3.1474 0.63508 1.6704 1.7305 2.5308 3.235 2.5409 3.4461 0.0232 7.7748 4.6946 7.7748 8.3905 0 2.3219 1.864 2.8932 5.0859 1.5586 4.1939-1.7372 9.9141 3.9617 9.9141 9.8772 0 3.9976 10.483 23.179 15.75 28.82 5.0789 5.4391 0.1292 17.056-9.3043 21.838-2.1701 1.1-4.1707 2.225-4.4457 2.5-4.2526 4.2526-26.985 9.0921-27.009 5.75-0.005-0.6875-4.5251-7.3212-10.045-14.741-5.5195-7.4203-11.193-15.858-12.608-18.75-2.7392-5.5988-3.2716-5.9415-6.2957-4.0529-1.576 0.98424-2.2766 0.89243-3.8152-0.5-1.03-0.94-3.38-1.71-5.22-1.71-4.34 0-10.17-5.93-14.89-15.12-3.21-6.28-6.99-9.88-10.38-9.88-1.9549 0-9.4878-7.3951-13.396-13.151-2.2551-3.3213-4.0666-4.8503-6.3375-5.349-1.7489-0.38414-4.3772-1.7835-5.8406-3.1098-2.93-2.66-13.89-9.39-15.28-9.39-1.2505 0-1.0968 3.5622 0.65794 15.245 0.84524 5.6275 1.717 12.037 1.9373 14.243 2.3094 23.13 4.2434 32.802 7.9547 39.782 1.2399 2.3319 2.8385 6.0375 3.5524 8.2348 4.4153 13.588 17.29 31.859 23.936 33.969 0.8897 0.28238 2.6536 2.4288 3.9198 4.7699l2.3022 4.2564-2.0153 6.4128-2.0153 6.4128 5.3102 11.087c10.119 21.127 12.288 31.165 13.204 61.087 0.72691 23.764 2.8296 35.26 8.7032 47.58 8.858 18.581 4.4075 24.473-14.583 19.309-2.8831-0.78406-6.8295-1.329-8.7698-1.211-1.9403 0.11798-4.001-0.0779-4.5793-0.4353-1.1378-0.70322-10.292 1.7563-11.672 3.1359-0.46382 0.46382 0.0841 2.4946 1.2177 4.5127 1.1335 2.0182 2.061 4.1828 2.061 4.8103 0 0.62746 0.61682 1.8513 1.3707 2.7196 8.7533 10.082 9.5115 51.415 1.1618 63.336-2.4288 3.4676-0.97356 4.3228 7.7464 4.5517 4.5216 0.11871 10.921 0.44824 14.221 0.7323 3.3 0.28405 10.95 0.69195 17 0.90643 11.411 0.40452 14.905 1.0876 13.899 2.7166-0.55094 0.89144-38.065 0.30051-42.907-0.67589-2.0125-0.40582-5.3478 0.99218-4.4627 1.8706 0.25907 0.25712 5.421 0.73059 11.471 1.0522 17.791 0.9456 26.5 1.7969 26.5 2.5904 0 1.1494-7.2996 2.0453-12.146 1.4907-7.7764-0.88989-24.707-1.2013-25.88-0.476-1.7301 1.0693 2.6472 1.9547 9.7401 1.9703 3.4178 0.008 10.843 0.54872 16.5 1.2027 13.637 1.5764 8.4862 2.9762-8.2142 2.2323-13.94-0.62092-19 0.0479-19 2.5116 0 3.7262 3.0382 4.9085 13.315 5.1814 6.2617 0.16627 10.425 0.73949 11.5 1.5833 1.4209 1.1155 0.00062 1.2819-9.0674 1.0625-5.9137-0.14307-10.751 0.0774-10.75 0.48987 0.001 0.4125 0.38088 0.75 0.84382 0.75 1.0281 0 3.1597 6.8355 3.1546 10.116-0.02 12.738-27.027 21.432-46.774 15.056zm24.28-4.17c0.33992-0.55 2.5285-1 4.8636-1 4.6792 0 11.636-5.0893 11.636-8.5122 0-1.3016-1.133-0.69812-4.4777 2.3849-2.4627 2.27-4.9377 4.1274-5.5 4.1274-2.0024 0-0.9709-1.9374 2.4008-4.5092 6.747-5.1461 6.4455-11.729-0.65132-14.223-6.2943-2.212-16.121-3.4236-22.12-2.7273-7.5819 0.87997-5.5925 2.2588 3.6928 2.5594 10.361 0.33541 8.9911 1.9003-1.6633 1.9003-10.234 0-13.233-1.3158-11.015-4.8338 1.1586-1.8381 15.672-2.4515 20.084-0.84879 3.6884 1.3399 2.5976-0.92457-1.3471-2.7964-2.6115-1.2393-4.8719-1.5326-8.25-1.0705-18.243 2.4952-20.4 1.7155-13.213-4.7776 4.2328-3.8241 9.0565-5.2717 13.97-4.1926 5.3837 1.1825 4.46 2.5197-1.7406 2.5197-4.3586 0-6.5767 0.5089-8.3 1.9043l-2.3517 1.9043 4.6124-0.51989c2.5368-0.28594 8.9931 0.26886 14.347 1.2329 9.9153 1.7853 13.149 1.1431 10.474-2.0801-0.51376-0.61905-0.67911-1.3806-0.36743-1.6922 0.31167-0.31168-0.47973-0.87353-1.7587-1.2486-1.279-0.37503-5.2236-1.8147-8.7659-3.1993-13.535-5.2905-27.004 0.73308-26.159 11.699 0.10601 1.375-0.50324 4.4691-1.3539 6.8757-2.566 7.2596-0.89289 16.444 3.235 17.758 0.94512 0.30094 2.6184 0.95273 3.7184 1.4484 4.3064 1.9406 25.041 3.4696 26 1.9174zm-227.04-15.49c8.1519-3.9921 13.473-4.9733 20.687-3.8143 6.6333 1.0657 21.581 0.11628 24.579-1.561 2.7642-1.5469 5.7266-15.34 3.7247-17.342-0.29941-0.29942-3.8666 0.48063-7.9271 1.7334-18.442 5.6901-29.759 3.7934-31.11-5.2143-0.7366-4.912-2.8389-6.8762-8.4712-7.9146l-3.448-0.64 3.5 2.58c5.0873 3.7584 6 4.6248 6 5.696 0 1.7102-2.95 1.022-6.9416-1.6194-3.9635-2.6229-8.0675-2.9349-8.8135-0.66998-0.22641 0.6875 0.25401 1.25 1.0676 1.25 0.8136 0 3.2515 2.0996 5.4175 4.6658l3.9383 4.6658 2.2658-2.2658c3.1639-3.1639 5.2229-1.2132 2.8539 2.7039-2.3564 3.8962-4.1872 3.8566-9.1348-0.19757-2.397-1.96-4.961-3.57-5.697-3.57-1.012 0-0.96371 0.3047 0.19793 1.25 2.4137 1.9642 5.8555 7.4073 5.1377 8.1251-0.35716 0.35716-2.2564-1.1021-4.2205-3.2428-5.8963-6.4265-10.362-6.3004-14.968 0.42262-2.321 3.39-2.48 3.45-9.541 3.45-4.3856 0-7.8858 0.51614-8.9936 1.3262-4.701 3.4374 3.8659 9.9689 12.968 9.8871 2.9152-0.0262 7.4744 0.54986 10.132 1.2801 7.1498 1.9649 11.261 1.7232 16.796-0.98736zm45.675-0.87656c4.8465-2.1148 1.0649-1.9284-8.6395 0.42592l-8 1.9408 6.6395-0.45018c3.6518-0.2476 8.1518-1.11 10-1.9166zm33.61-11.32c-0.9625-0.25152-2.5375-0.25152-3.5 0-0.9625 0.25153-0.175 0.45733 1.75 0.45733s2.7125-0.2058 1.75-0.45733zm-8.75-0.87c-3.7158-0.80844-8.8143-0.95014-8.3708-0.23265 0.26888 0.43506 2.5998 0.73881 5.1799 0.67501 2.58-0.0638 4.016-0.26286 3.191-0.44236zm19.25-3.1474c-1.2375-0.23836-3.2625-0.23836-4.5 0-1.2375 0.23835-0.225 0.43337 2.25 0.43337s3.4875-0.19502 2.25-0.43337zm-12.333-0.65709c-0.23-0.19-4.7-0.59-9.92-0.87-5.225-0.28176-8.375-0.16335-7 0.26314 2.465 0.7646 17.726 1.3167 16.917 0.61199zm118.42-5.0392c9.1283-8.5007 13.595-9.4028 25.762-5.2033 9.6842 3.3425 15.216 2.7447 6.9113-0.74702-1.9779-0.83163-3.8341-2.9263-5.4958-6.2017-3-5.91-2.95-5.44-0.63-5.44 2.4245 0 3.0077-1.541 4.7311-12.5 4.0593-25.813 4.1167-36.855 0.24443-47.001-2.2574-5.9146-2.4966-6.6447-2.7436-8.3739-0.31659-2.2164-6.5261-4.0719-8.2887-2.4768-1.0644 0.96325-2.4888 1.2796-3.8363 0.85188-1.3029-0.41354-2.8014-0.12135-3.8217 0.74517-6.2147 5.2782-38.272 10.757-41.336 7.0643-0.58768-0.70811-1.4968-1.0228-2.0204-0.69921-0.55312 0.34184-0.34672 1.2797 0.49272 2.239 4.324 4.9412 5.5734 10.12 3.05 12.644-3.7558 3.7558 0.48095 19.072 7.0288 25.408 3.3931 3.2838 3.9194 4.5243 5.1336 12.099 1.1085 6.9152 2.7078 11.481 5.414 15.457 1.874 2.7531 2.8016 5.4684 2.9071 8.5096 0.31409 9.0581 0.53355 9.1809 6.4925 3.6316zm-156.43-1.6722c6.3087-1.353 9.647-3.9489 10.475-8.1453 0.35583-1.8043 1.6936-5.5306 2.9728-8.2806 4.2351-9.1044 5.5647-12.947 6.2274-18 0.37343-2.8469 2.0479-7.3684 3.8886-10.5 2.855-4.8573 4.1897-8.6653 5.8712-16.75 2.28-10.94-5.83-31.73-9.84-25.24-0.33992 0.55-1.379 1.0025-2.309 1.0056-4.4675 0.0147-9.771 2.2154-7.441 3.0877 3.3205 1.2431 2.7802 2.185-2.5038 4.3645l-4.7462 1.9577 3.75 0.89161c5.1246 1.2184 4.7829 3.4041-0.75 4.7972-4.8285 1.2158-5.7146 2.3448-2.5 3.1854 3.0873 0.80736 2.3909 2.2302-2.0778 4.2454-3.9539 1.783-4.0171 1.8864-2.08 3.4019 1.8839 1.4739 1.9108 1.7768 0.47089 5.313-1.9169 4.7077-4.7623 5.3372-3.1442 0.69563 1.1683-3.3513-0.73281-5.8484-4.5021-5.9138-3.086-0.0535-1.3171-2.2136 3.287-4.0137 4.7296-1.8492 4.5378-2.3961-1.2037-3.4321-5.0139-0.90471-4.7322-2.331 0.75-3.7973 2.475-0.66196 4.5-1.5091 4.5-1.8826 0-0.37348-2.025-0.98272-4.5-1.3539-6.4445-0.96641-5.7582-3.012 1.5293-4.5585 5.7406-1.2182 8.9632-2.9938 5.4336-2.9938-3.2277 0-12.48-3.1636-11.917-4.0747 0.31453-0.50892 2.8853-0.92531 5.7129-0.92531 8.3041 0 4.2802-1.6584-8.0665-3.3244-9.246-1.2477-11.935-2.0046-14.75-4.1516-3.6781-2.8054-4.9573-7.3572-1.6925-6.0225 3.634 1.4856 7.9424 2.3706 13.75 2.8242 3.3 0.25776 8.4634 1.0238 11.474 1.7024 7.2001 1.6228 19.022 0.67068 26.312-2.1191 8.0937-3.0973 7.3184-4.3048-2.3391-3.6428-9.651 0.66149-10.104-0.58923-1.3879-3.8284 14.561-5.4112 15.661-5.9685 17.043-8.6381 2.4252-4.6848 1.9655-5.1222-4.6021-4.3792-3.9537 0.44731-6 0.32084-6-0.37083 0-0.57731 0.16358-1.0497 0.36351-1.0497 10.359 0 17.064-5.7058 6.9683-5.9297-4.2846-0.0951-6.3043-0.97838-5.7198-2.5016 0.3341-0.87065 1.9762-1.1225 5.2605-0.80696 3.5951 0.34544 5.8306-0.0798 9.048-1.7212 5.652-2.8834 4.9515-3.1887-3.3323-1.4523-7.6573 1.6051-10.259 1.1744-3.4392-0.56929 7.6443-1.9546 18.834-7.3695 17.658-8.5452-0.43825-0.43825-11.191 1.1128-14.557 2.0998-1.6054 0.47077-2.25 0.24254-2.25-0.79671 0-1.0237 2.1541-1.8366 7.25-2.7358 3.9875-0.70363 8.375-1.9086 9.75-2.6778l2.5-1.3984-2.5 0.12829c-3.996 0.20506-4.3247 0.004-2.8724-1.759 1.2403-1.5054 1.0964-1.5971-1.4942-0.95167-10.796 2.6896-11.339 1.6672-0.97987-1.8418l6.8465-2.319-5-0.62373c-12.007-1.4978-17.973-2.8419-28.796-6.4874-12.5-4.21-13.7-4.75-13.7-6.17 0-1.4494 3.1509-1.1144 4.9658 0.52805 2.3049 2.0859 21.143 6.9736 21.935 5.6914 0.34558-0.55916 1.2968-0.9781 2.1137-0.93099 0.81698 0.0471 3.0604-0.0334 4.9854-0.17897l3.5-0.26462-4.25-0.95176c-7.4786-1.6748-5.671-4.14 2.6892-3.6676 9.0305 0.51027 7.8555-1.097-2.6341-3.6034-7.4022-1.7687-15.999-5.6662-17.489-7.9287-1.5423-2.3424 0.51273-2.4487 3.9821-0.2061 2.036 1.3161 5.7269 2.6522 8.2019 2.9691l4.5 0.57616-3-1.4416c-1.65-0.79289-3.7324-1.4619-4.6276-1.4867-1.6396-0.0454-4.5131-2.7378-3.7435-3.5074 1.1173-1.1173 15.829 4.7607 19.871 7.9391 11.804 9.2827 23.5 10.156 40 2.9854 4.125-1.7926 9.975-4.0434 13-5.0017s6.3313-2.1601 7.3474-2.6707 2.0868-0.68894 2.3794-0.39632c0.29263 0.29262-5.9387 3.6896-13.847 7.5488-14.559 7.1042-21.498 11.712-19.129 12.702 1.7396 0.72703 1.5667 2.3558-0.25 2.3558-1.6694 0-1.9344 1.7656-0.58477 3.8971 0.60461 0.95487 1.9722 1.2206 4.3205 0.83952 4.8214-0.78241 6.4712 0.41642 5.0041 3.6363-2.0641 4.5302-0.33337 8.689 5.4183 13.02 8.2 6.1748 13.004 13.815 15.398 24.488 1.4729 6.568 6.4933 12.068 12.718 13.933 5.018 1.5034 5.7861 3.6445 0.976 2.7204l-3.25-0.62433 3 2.5688c1.65 1.4128 2.8833 3.0205 2.7407 3.5727-0.94191 3.6472 22.641 0.4286 33.885-4.6246 8.011-3.6002 9.8741-4.0614 9.8741-2.444 0 2.9132-15.321 8.1764-29.25 10.048-9.2639 1.2447-10.965 2.331-5.3102 3.3918 8.3541 1.5672 24.842-1.9846 36.399-7.8412 5.4178-2.7454 6.3447-3.8918 7.9842-9.8749l1.0394-3.7933-3.4662 3.0433c-6.9922 6.1393-7.887 0.7101-1.1053-6.7067 1.1315-1.2375 1.5354-2.25 0.89738-2.25-1.6337 0-10.232 2.072-13.014 3.1361-1.2787 0.48912-2.7631 0.61852-3.2986 0.28757-1.736-1.0729 0.99-3.1467 4.9737-3.7837 5.4684-0.87443 7.6498-3.7247 7.6498-9.9953 0-9.6627 2.4564-7.1639 4.2814 4.3554 0.82761 5.2238 0.92706 5.3672 1.9804 2.8549 0.60995-1.4548 1.5629-2.8048 2.1177-3 1.547-0.54427 0.1288-8.8549-1.5111-8.8549-0.75258 0-1.3711-0.5625-1.3745-1.25-0.003-0.6875-0.68644-2.5544-1.5179-4.1488-0.83144-1.5943-1.2171-3.1693-0.85693-3.5 0.36013-0.33067 0.85836-0.0307 1.1072 0.66664 0.24881 0.69732 1.0038 1.8223 1.6779 2.5 0.67402 0.67768 1.6802 2.0481 2.2359 3.0455 0.89924 1.6138 1.3154 1.3525 3.782-2.3749 4.85-7.29 8.64-21.92 5.71-21.92-0.87881 0-2.4474-3.7702-2.2068-5.304 0.0694-0.4422-2.2165-2.9172-5.0798-5.5s-5.9089-5.5711-6.768-6.6406c-0.85914-1.0695-3.9246-4.274-6.8121-7.121-4.83-4.76-6.43-7.43-4.46-7.43 0.81064 0 15.795 15.415 22.462 23.108 2.5878 2.9859 3.75 3.7848 3.75 2.578 0-0.96189-0.675-2.0079-1.5-2.3245-0.825-0.31659-1.5-1.1327-1.5-1.8136 0-0.68091-0.9-2.0525-2-3.048-1.1-0.99549-2.0002-2.3027-2.0004-2.905-0.00039-1.0266-16.11-16.528-20.176-19.413-2.2354-1.5866-1.3971-3.4982 1.176-2.6816 1.0074 0.31975 2.1211 0.11305 2.4749-0.45932 1.4441-2.3366 4.0784-0.56212 13.672 9.2093 7.4745 7.6132 9.5758 9.3257 8.1686 6.6571-1.0421-1.9761-4.3518-5.7588-7.355-8.4061-6.41-5.65-7.75-7.5-5.45-7.5 2.966 0 0.52322-1.8187-3.3134-2.4669-6.4217-1.0849-24.074 4.764-32.669 10.825-3.1469 2.2189-14.054 2.7317-37.026 1.7407-8.1802-0.35287-9.7577-0.10178-17.318 2.7566-13.436 5.0799-19.476 3.3589-24.748-7.052-6.09-12-20.44-26.72-20.44-20.95 0 1.0158-0.9 2.8847-2 4.153s-2 2.8646-2 3.5472c0 2.5467-5.913 7.7698-7.3995 6.5362-1.0984-0.91162-2.1131-0.26853-4.9462 3.1348-1.9603 2.355-3.1345 4.4317-2.6093 4.6151 1.6771 0.5854 1.0235 2.1667-0.89561 2.1667-1.0436 0-3.7568 2.3889-6.2219 5.4782-6.23 7.8075-5.8382 7.8974-18.337-4.2051-6.1192-5.9252-13.382-12.545-16.14-14.711-4.8421-3.8035-10.498-10.351-13.306-15.402-4.5069-8.1088-4.0999 36.931 0.45967 50.871 1.3477 4.1203 1.4144 5.721 0.41272 9.8966-1.3304 5.5456-0.69932 7.1755 4.3009 11.109 3.164 2.48 3.504 4.96 0.682 4.96-1.1 0-2 0.43002-2 0.95559 0 0.52558-1.0858 2.5556-2.4129 4.5112-2.6656 3.928-2.7018 10.117-0.0828 14.158 0.95474 1.4728 1.2028 3.8134 0.80875 7.6313-0.4735 4.5878-0.1298 6.4649 2.0593 11.247 3.2033 6.997 3.2406 7.6898 0.37529 6.9707-4.1382-1.0386-8.3165 34.859-4.8182 41.395 0.81088 1.5151 0.8244 2.1319 0.04676 2.1319-0.60181 0-0.85456 0.38775-0.56166 0.86167 2.106 3.4075 2.4582 18.77 0.51585 22.496-2.4459 4.6926-1.5559 5.9758 6.3754 9.1927 4.7386 1.922 8.6942 6.3506 8.6942 9.7339 0 2.8354 11.231 3.7169 20.91 1.6411zm176.86-134.89c-1.5-2.72-2.1512-4.7244-1.4471-4.4542 1.3666 0.52443 4.9813 6.0984 5.3037 8.1786 0.40559 2.6169-1.2314 1.0361-3.8566-3.7243zm4.1575-3.3071c-0.86343-1.2202-2.5911-4.3561-3.8392-6.9686s-2.5822-4.75-2.9645-4.75c-0.38235 0-1.4926-1.35-2.4673-3-2.6352-4.4611-0.085-3.635 2.7776 0.89975 1.354 2.1449 2.8808 4.0574 3.3928 4.25 1.481 0.55716 7.1631 10.053 6.5801 10.997-0.83526 1.3515-1.7902 0.95967-3.4794-1.4277zm-1.77-13.97c-3.363-5.0875-6.8638-10.275-7.7796-11.527-2.9745-4.0678-0.2988-3.8392 3.2411 0.27686 9.0647 10.54 14.658 20.5 11.513 20.5-0.47314 0-3.6118-4.1625-6.9749-9.25zm-152.16 5.37c0-0.9343 9.028-2.4222 9.8301-1.6201 0.84288 0.84289-0.12757 1.195-5.0801 1.8433-2.6125 0.34196-4.75 0.24152-4.75-0.2232zm68.611 69.625c-1.1608-2.3344-3.3906-7.0564-4.955-10.493-1.57-3.44-3.23-6.25-3.69-6.25-0.46102 0-1.1239-0.9-1.473-2-0.34913-1.1-1.0544-2-1.5674-2-0.51293 0-0.93261 0.9-0.93261 2s0.56327 2 1.2517 2c0.68844 0 2.3232 2.1375 3.6329 4.75 1.3096 2.6125 3.6156 7.225 5.1243 10.25s2.5007 6.175 2.2045 7c-0.44399 1.2364-0.27095 1.2791 0.98454 0.24326 1.3528-1.1162 1.2871-1.7315-0.58738-5.5012zm-3.5522 2.0079c-1.1759-1.7875-3.5667-5.95-5.3129-9.25-2.6273-4.9653-3.2374-5.6011-3.538-3.6868-0.23906 1.5227 0.5178 3.1296 2.2147 4.7022 1.4178 1.314 2.5778 3.0855 2.5778 3.9368 0 0.85126 0.54 1.5478 1.2 1.5478 0.91917 0 0.91307 0.28693-0.026 1.226-0.96807 0.96807-0.74713 1.5946 1.05 2.9778 3.4927 2.6881 4.1937 2.1325 1.8344-1.4538zm-27.845-5.6242c-0.94244-0.9907-2.2924-2.6618-2.9998-3.7135-1.1649-1.7318-1.2319-1.6448-0.70992 0.92154 0.37266 1.8322 0.20876 2.6066-0.46369 2.191-0.58-0.36-1.05-0.41-1.05-0.12 0 0.85631 5.4276 3.4447 6.2096 2.9614 0.39457-0.24386-0.0537-1.254-0.99612-2.2446zm2.4324-4.5921c-2.783-5.8778-4.6547-7.7772-2.2504-2.2837 2.5293 5.7792 4.0746 8.6132 4.477 8.2108 0.21642-0.21642-0.78553-2.8836-2.2266-5.9272zm-12.54-3.83c-0.81-0.81-1.11-0.7-1.11 0.42 0 1.9879 1.3447 3.3326 1.8417 1.8417 0.21083-0.6325-0.1173-1.6506-0.72917-2.2625zm39.975 0.018c-0.47457-1.2482-1.759-3.8357-2.8544-5.75-6.7894-11.866-7.2092-12.468-7.2212-10.353-0.007 1.1702 0.7009 2.7192 1.5723 3.4424 0.87139 0.72318 3.127 4.3783 5.0126 8.1224 3.3469 6.646 5.216 9.076 3.4907 4.5381zm134.69-3.5602c0.33529-1.0198-0.62861-1.2186-4.1358-0.85313-3.1608 0.32937-4.9282 0.0485-5.7232-0.90933-0.63259-0.76223-1.5181-1.1585-1.9678-0.88057-0.44968 0.27792-1.0741 0.0902-1.3877-0.41713-0.31355-0.50734-1.52-0.67403-2.681-0.37042-1.72 0.44977-1.1179 0.98508 3.251 2.8904 5.6917 2.4823 11.918 2.7483 12.644 0.54015zm-25.02-2.86c5.9701-0.55496 6.2439-0.69801 6.1138-3.1941-0.12273-2.3549-0.179-2.3908-0.56955-0.36309-0.23836 1.2375-0.86657 2.25-1.396 2.25-0.52947 0-1.3696-1.0125-1.8671-2.25-0.76088-1.893-0.91445-1.9538-0.96777-0.38337-0.0463 1.3632-0.60282 1.7256-2.0634 1.3436-1.1-0.28766-2-0.16522-2 0.27208s-1.5592 1.0876-3.4649 1.4451c-1.9057 0.35751-3.7761 1.1535-4.1564 1.7688-0.47746 0.77253 0.0533 0.89798 1.7149 0.40533 1.3235-0.39239 5.2189-0.97489 8.6564-1.2944zm-149.2-3.8526c-0.944-1.9893-1.9222-3.4111-2.1738-3.1596-0.25157 0.25158 0.31754 2.0825 1.2647 4.0687 0.94715 1.9862 1.9254 3.408 2.1738 3.1596 0.24843-0.24843-0.32068-2.0793-1.2647-4.0686zm39.903 0.38838c-4.3447-8.5482-8.8033-14.887-9.5886-13.632-0.49872 0.7968-0.28674 1.4049 0.55477 1.5913 0.74903 0.16599 2.8266 3.316 4.6167 7 1.7902 3.684 3.7046 7.2716 4.2543 7.9724 1.7989 2.2934 1.8994 0.4854 0.16285-2.9312zm-30.95-3.85c-0.85325-1.65-1.7764-3-2.0514-3s0.19811 1.35 1.0514 3c0.85325 1.65 1.7764 3 2.0514 3s-0.19811-1.35-1.0514-3zm1.9367-6.5833c-1.9598-4.3542-3.321-6.7582-3.0249-5.3421 0.67118 3.2102 5.6512 14.196 6.1908 13.656 0.21852-0.21852-1.2061-3.9598-3.1659-8.314zm161.47 4.8333c-1.2464-3.4685-3.7057-6.7854-4.4667-6.0244-0.61095 0.61096 1.0992 4.079 3.464 7.0244 1.9385 2.4145 2.1529 2.2006 1.0028-1zm-184.58 0c-0.33459-0.9625-1.3065-2.3125-2.1598-3-1.8491-1.4899-4.5491-1.6738-3.6691-0.25 0.33992 0.55 1.439 1 2.4424 1s2.0597 0.9 2.3474 2c0.28766 1.1 0.77602 2 1.0852 2 0.30922 0 0.28847-0.7875-0.0461-1.75zm12.17-6.25c-2.3511-5.2138-2.9669-4.5981-0.83333 0.83333 0.90484 2.3035 1.8704 3.9629 2.1457 3.6876 0.2753-0.27531-0.31527-2.3097-1.3124-4.521zm-4.9252-10.197c-1.8789-2.6825-2.0373-1.9125-0.36256 1.7631 0.66671 1.4633 1.3754 2.171 1.5748 1.5728 0.1994-0.59821-0.34608-2.0994-1.2122-3.3359zm11.03-0.4c-0.35589-0.92744-0.87208-1.4613-1.1471-1.1863-0.275 0.275-0.20881 1.2588 0.14708 2.1863 0.35589 0.92744 0.87208 1.4613 1.1471 1.1863 0.275-0.275 0.20881-1.2588-0.14708-2.1863zm154.24-7.8703c-3.85-11.18-8.81-30.61-9.32-36.53-0.21367-2.475-0.8514-7.875-1.4172-12-2.4572-17.916-2.4341-17.57-1.0942-16.314 0.69584 0.65204 2.0588 5.377 3.0288 10.5 0.96998 5.123 1.8056 7.9645 1.8569 6.3145 0.1728-5.5555-1.9265-15.517-4.4179-20.964-1.37-2.98-2.48-5.73-2.48-6.13 0-2.3405-5.464-11.719-7.0727-12.14-1.0476-0.27396-1.611-0.97342-1.252-1.5544 0.41273-0.6678 0.0107-0.80987-1.093-0.38631-0.96021 0.36847-2.9465 0.70547-4.414 0.74889-1.4675 0.0434-2.131 0.29749-1.4744 0.56461 1.6089 0.65451 0.47562 3.3564-1.4078 3.3564-0.87562 0-1.2761-0.58337-0.96221-1.4015 0.30539-0.79583-0.19523-1.5932-1.1584-1.845-0.93293-0.24397-3.1939-3.5152-5.0244-7.2694s-5.311-9.7817-7.7346-13.394c-4.2603-6.3506-6.2789-12.458-2.9926-9.054 0.77758 0.80536 2.2401 2.8797 3.25 4.6096 2.71 4.63 11.43 17.35 11.9 17.35 0.77133 0-3.0536-7.5099-6.1118-12-6.9477-10.201-5.5066-9.5672 2.7563 1.2116 3.4622 4.5164 6.7449 8.7779 7.2949 9.4699 1.7144 2.1573 7.1331-1.3641 10.487-6.8153 3.7749-6.1351 3.7606-6.4793-0.42862-10.26-3.2186-2.905-19.126-24.316-20.259-27.267-0.97601-2.5434 2.3823-1.3321 3.5771 1.2903 0.65887 1.4461 1.4386 2.3886 1.7327 2.0945 0.29411-0.29411-0.6422-2.3991-2.0807-4.6778s-3.0451-5.2733-3.5703-6.6546c-0.54249-1.4268-1.4259-2.2204-2.0456-1.8375-1.1266 0.69628-15.121-13.047-16.231-15.94-1.2435-3.2406 1.1416-1.4402 8.6478 6.5276 4.4702 4.7451 7.67 7.457 7.67 6.5005 0-2.8438-5.4032-11.613-7.1649-11.628-1.53-0.01-9.83-9.31-9.83-11.02 0-0.414-0.89773-0.9875-1.995-1.2744-2.1327-0.55772-3.7103-3.3396-2.5512-4.4987 0.61702-0.61703 2.4246 1.1535 10.758 10.537 2.3061 2.5968 4.2847 2.9862 3.3952 0.66821-0.34-0.87-0.61-2.22-0.61-3s-0.42-1.42-0.93-1.42c-1.0881 0-9.5714-8.4589-11.784-11.75-6.9188-10.291-3.7971 5.9415 4.1826 21.75 7.2676 14.398 8.8763 17.065 9.5925 15.907 0.44575-0.72123 1.3961-0.3359 2.7465 1.1136 1.6494 1.7704 1.8398 2.5769 0.94629 4.0077-1.1142 1.7841 2.9556 9.1896 8.6402 15.722 3.2894 3.7801 0.25355 2.5001-3.5578-1.5-10.413-10.929-23.539-35.584-31.283-58.763-4.2239-12.642-5.7988-20.806-7.0384-36.487-1.2874-16.285-1.8516-20.799-3.1254-25-1.5215-5.0185-1.88-18-0.49721-18 0.48879 0 1.1883 1.6875 1.5545 3.75 1.1352 6.3938 3.698 12.112 6.1473 13.717 3.0798 2.018 12.694 5.5945 15.697 5.8395 1.5233 0.12424 3.946 2.1269 6.7902 5.6127 6.0999 7.4762 7.4482 7.4451 3.9661-0.0916-3.15-6.8-4.85-13.83-3.36-13.83 0.50295 0 1.9248 3.1369 3.1596 6.9708 1.2348 3.834 2.7193 7.2639 3.2989 7.6221 0.57957 0.3582 1.6875 2.168 2.4621 4.0218 2.951 7.0626 14.82 12.159 13.326 5.7222-1.2009-5.1746-1.1735-14.337 0.0428-14.337 1.0615 0 1.566 1.8546 2.5368 9.3241 1.1543 8.8816 10.1 19.272 23.397 27.176 2.7759 1.65 5.0555 3.5939 5.0659 4.3198 0.0104 0.72591 1.3689 3.282 3.0189 5.6802s3 4.8529 3 5.4549c0 0.82223 3.8618 3.0357 5.3151 3.0464 0.10169 0.00075 0.0292-2.5017-0.16118-5.5609-0.19035-3.0593 0.20126-6.8837 0.87024-8.4988 1.1474-2.77 0.98929-3.1635-2.7876-6.9404-7.5111-7.5111-4.8785-17.263 5.2963-19.619 8.3366-1.9302 8.639-2.1553 7.026-5.2296-2.0766-3.9577-9.6186-11.232-13.24-12.771-3.73-1.58-5.18-3.38-2.72-3.38 0.94305 0 3.1919 1.1268 4.9975 2.504s3.5338 2.098 3.8405 1.6018c0.66-1.08-8.42-7.11-10.69-7.11-0.86852 0-1.7291-0.34291-1.9125-0.76202-0.46822-1.0704-13.833-5.27-16.715-5.2525-2.61 0.01-9.12-3.6-9.12-5.07 0-0.51 1.15-0.92 2.56-0.92 3.8902 0 2.0402-1.6417-2.7869-2.4731l-4.2722-0.73576 3.7976-1.1456 3.7976-1.1456-2.2976-1.8854c-1.2637-1.037-3.3158-2.8082-4.5603-3.9362-1.6775-1.5205-3.4877-2.0143-7-1.9098l-4.7373 0.14107 3.355-1.2453c4.4417-1.6486 1.1056-4.1768-10.1-7.654-3.2691-1.0145-3.6139-1.4064-2.7149-3.086 1.487-2.7785-5.7708-7.1605-14.534-8.7752-3.6904-0.67998-7.8097-1.957-9.1539-2.8378-2.1262-1.3931-2.9909-1.4294-6.6484-0.27876-12.076 3.7991-14.291 13.133-13.873 58.467 0.37075 40.239 0.48182 41.499 4.7333 53.696 1.9754 5.6673 4.0394 11.879 4.5866 13.804 0.54719 1.925 1.8816 6.65 2.9654 10.5s2.4009 8.382 2.9269 10.071c1.2208 3.92 1.2679 11.161 0.0642 9.879-0.49075-0.5225-2.271-6.575-3.9562-13.45s-5.4347-19.475-8.3322-28l-5.27-15.51-0.49-24.5c-1.0015-50.35-0.33184-58.846 5.5325-70.186 1.9487-3.7683 1.3754-4.3677-2.3397-2.4466-4.2857 2.2162-8.1142 7.7837-11.789 17.143-6.5769 16.753-16.061 26.855-19.116 20.361-3.58-7.62-7.35-16.69-7.35-17.7 0-0.64-0.45-1.17-1-1.17s-1.0069 2.1375-1.0153 4.75c-0.0333 10.338-3.0041 9.5688-3.6136-0.93557-0.23342-4.0229-0.90053-9.7068-1.4825-12.631-1.8423-9.2571-0.46027-14.649 4.706-18.359 2.423-1.74 4.4054-3.5105 4.4054-3.9344 0-0.42389 2.1958-3.6356 4.8796-7.1371 5.3652-7 6.8274-12.687 5.2071-20.253-0.47116-2.2-0.90841-3.0482-0.97166-1.8849-0.16598 3.0529-3.9228 7.4066-7.7829 9.0195-1.8327 0.76573-3.3834 1.7237-3.4461 2.1288-0.0627 0.40512-0.26405 2.017-0.44741 3.5818-0.55244 4.7147-16.464 23.51-22.741 26.863-3.2924 1.7585-8.8114 2.3453-10.084 1.0722-2.0297-2.0297-8.9614-1.3221-7.1082 0.72568 1.8249 2.0165 5.1357 2.8404 3.9946 0.99402-0.33992-0.55 0.28197-1 1.382-1s2.3137 0.50761 2.6972 1.128c0.46641 0.75467 2.703 0.91836 6.7576 0.49458 5.4809-0.57287 5.8741-0.49254 4.1119 0.84018-1.0717 0.81049-3.5235 1.5016-5.4485 1.5358-2.9695 0.0528-3.2223 0.22369-1.6676 1.1276 4.15 2.41 15.67-3.63 15.67-8.2 0-1.06 0.36-1.93 0.8-1.93 1.5849 0 2.8862 6.6414 2.6451 13.5-2.0159 57.347 0.0292 71.559 13.612 94.595 1.583 2.6847 3.8393 7.249 5.0141 10.143 1.1748 2.8939 2.5998 6.3866 3.1666 7.7616 0.56683 1.375 1.3942 3.4 1.8386 4.5 0.44438 1.1 1.1174 3.575 1.4956 5.5 0.63013 3.2072 5.5382 13.492 7.2713 15.237 0.9821 0.98887 8.1575-5.0014 8.1575-6.8102 0-0.78496 0.675-1.4272 1.5-1.4272 2.0095 0 1.968 0.18266-1.5999 7.0382-1.705 3.276-3.505 5.706-4 5.4-2.9668-1.8336 4.0654 10.724 7.2574 12.96 2.0378 1.4273 2.3097 1.3778 3.7293-0.6791 2.5459-3.6887 3.9328-4.8195 4.5956-3.747 0.70017 1.1329-0.72592 4.1289-3.0912 6.4942-2.0936 2.0936-0.97667 3.3959 10.609 12.37 20.266 15.698 23.101 18.469 27.222 26.616 2.6471 5.233 14.832 21.602 19.716 26.486 5.9084 5.9084 14.662 22.422 15.405 29.062 2.0099 17.961 9.1123 36.807 17.432 46.256 2.455 2.7882 2.3276 1.732-0.9326-7.7264zm-111.84-174.77c0-2.0112 7.1424-11.789 8.1546-11.163 1.3734 0.84881-0.0441 4.3842-3.4641 8.64-3.1024 3.8605-4.6905 4.7148-4.6905 2.5232zm-10.41-24.613c-0.29051-0.47005 0.58293-1.8985 1.941-3.1743 2.6975-2.5341 3.4777-0.88338 1.0771 2.279-1.4759 1.9443-2.2313 2.1684-3.0181 0.89536zm-6.59-26.35c0-1.58 5.03-8.8 6.14-8.8 1.6811 0 0.83082 3.3547-1.6869 6.6556-2.6 3.4-4.45 4.3-4.45 2.14zm97.5-48.8c0.33992-0.55 1.7165-1 3.059-1s2.441 0.45 2.441 1-1.3766 1-3.059 1c-1.7847 0-2.8016-0.41658-2.441-1zm32.108 262.82c-1.2715-3.6291-1.5205-3.8868-1.5606-1.6152-0.0524 2.9685 2.1671 8.6525 2.7251 6.9786 0.19164-0.5749-0.33237-2.9884-1.1644-5.3634zm-4.5064-20.311c-1.0928-5.3493-2.2892-10.014-2.6586-10.367-0.73435-0.70056 0.10219 6.0234 1.5376 12.359 0.49843 2.2 1.2121 5.35 1.586 7 1.7096 7.5455 1.3016-0.34479-0.46495-8.9924zm5.5852-2.2693c-0.25029-0.95609-0.446 0.0617-0.4349 2.2617s0.21589 2.9822 0.45508 1.7383 0.23011-3.0439-0.0202-4zm-32.843-6.9543c-2.389-2.478-5.5811-5.7904-7.0936-7.361s-2.75-3.2409-2.75-3.7117c0-1.2123-8.1441-6.4006-8.8847-5.66-0.33671 0.33671 0.2871 1.2643 1.3862 2.0613 4.141 3.0026 8.4984 7.6012 8.4984 8.9687 0 0.78032 0.6604 1.4188 1.4676 1.4188 0.80716 0 3.6197 2.6076 6.25 5.7947 2.882 3.492 4.919 5.2384 5.126 4.3947 0.18898-0.76999-1.611-3.4274-4-5.9054zm-107.48-9.792c5.4258-2.267 27.441-7.7004 31.541-7.7846 1.9767-0.0406 7.8829 0.29317 13.125 0.7416 9.4596 0.80923 9.5719 0.79232 15-2.2589 11.796-6.6306 28.157-9.7984 39.193-7.5883l2.7237 0.54547-3.2237-3.4733c-4.268-4.5985-13.288-15.585-16.491-20.086l-2.5598-3.5977-3.7253 2.2551c-4.9016 2.9671-9.3893 7.0882-15.195 13.953-5.4424 6.4358-9.2467 7.5483-20.253 5.9226-3.3-0.48741-6.45-0.60348-7-0.25793-0.55 0.34554-3.475 0.68319-6.5 0.75032-3.025 0.0671-8.7375 0.91138-12.694 1.8761-8.5429 2.0828-13.527 1.4542-16.843-2.1244-3.0805-3.3239-8.8573-15.403-7.798-16.306 1.649-1.4046 8.9701-2.9668 16.336-3.4859 11.822-0.8332 32.881-7.4237 42.128-13.185 1.9956-1.2432 5.2032-2.9183 7.1279-3.7226 5.1626-2.1571 5.3538-3.3377 1.1626-7.1767-2.061-1.8878-4.0637-3.5578-4.4503-3.711-0.38666-0.15323-4.2503-5.0326-8.5858-10.843-10.708-14.351-12.378-16.726-12.411-17.645-0.0153-0.43477-1.3582-2.5486-2.9841-4.6973-1.626-2.1488-3.2355-5.3952-3.5768-7.2144-0.34128-1.8192-1.2484-3.8287-2.0159-4.4656-0.76746-0.63694-1.4097-2.3405-1.4272-3.7856-0.0175-1.4452-0.6449-3.436-1.3942-4.424-0.74933-0.98806-1.1792-2.5631-0.95519-3.5 1.3183-5.5146-1.7478-4.6352-8.401 2.4096-5.36 5.66-18.38 15.38-20.62 15.38-0.24831 0-3.7468 1.5093-7.7745 3.3539-4.0277 1.8447-8.5605 3.6532-10.073 4.0191-4.1407 1.0015-3.3949-1.2172 1-2.9747 33.715-13.483 46.739-26.059 39.026-37.685-1.9026-2.8676-4.0306-7.0137-4.729-9.2137-0.69831-2.2-1.8251-4.9-2.504-6-6.9814-11.312-8.9832-31.016-7.137-70.25 0.4982-10.588 0.64295-19.25 0.32168-19.25-1.009 0-12.581 7.1166-13.556 8.3369-1.43 1.78-4.17 12.08-4.17 15.66 0 4.486-2.7307 13.361-6.1218 19.897-1.583 3.051-2.8782 5.8401-2.8782 6.1978 0 0.35775-0.98797 2.8452-2.1955 5.5276-2.7919 6.202-2.6808 5.6117-3.8353 20.377-1.301 16.64-1.7686 19.369-4.6262 27-2.6364 7.0405-4.7309 14.379-5.7507 20.149-0.3547 2.0067-1.5331 4.7777-2.6186 6.1577-1.0856 1.38-1.9737 3.2439-1.9737 4.1419 0 0.89802-1.0125 3.0019-2.25 4.6754-9.6344 13.028-0.28288 55.434 16.09 72.96 4.2132 4.5102 11.57 13.199 16.349 19.308 14.299 18.28 13.678 17.815 20.176 15.1zm-44.3-47.14c-3.0344-3.8576-2.441-7.7558 1.2449-8.1785 3.0486-0.34955 5.6895 1.2494 5.6895 3.4447 0 1.8297-1.7724 1.748-3.6905-0.17006-1.9132-1.9132-2.7059-1.2767-1.8334 1.4723 0.37827 1.1918 1.5127 2.0754 2.6646 2.0754 1.3671 0 1.8993 0.55368 1.6711 1.7385-0.53629 2.7847-3.4052 2.5938-5.7463-0.38232zm-5.4106-19.185c-2.5836-2.8549-2.1279-6.9987 0.92267-8.3886 4.586-2.0895 7.5134 1.7342 5.9862 7.819-0.73936 2.9459-4.4793 3.2542-6.9088 0.56955zm3.7892-3.081c0.72-1.18-0.39-4.1-1.56-4.1-0.49 0-0.89 1.12-0.89 2.5 0 2.4712 1.355 3.3527 2.4442 1.5902zm-2.8-17.35c-3.9465-3.6146-4.2256-7.2074-0.75224-9.6807 3.7242-2.6519 4.5172-2.6035 6.4823 0.39554 4.2591 6.5002-0.4461 14.125-5.73 9.2852zm3.35-5.19c0-1.3425-0.45318-2.7211-1.0071-3.0634-1.2657-0.78225-2.3998 2.0016-1.6313 4.0044 0.90793 2.366 2.6384 1.7489 2.6384-0.94098zm54.5-15.172c1.65-1.4026 4.1971-3.6384 5.6602-4.9684 2.6646-2.4222 4.8398-3.139 4.8398-1.595 0 1.3685-10.15 9.1792-11.885 9.1452-1.1403-0.0223-0.73304-0.78166 1.3846-2.5818zm-52.842-3.9378c0.60376-1.5734 11.783-7.6346 18.362-9.956 8.2466-2.9096 17.096-11.192 18.425-17.246 0.71141-3.239 2.1756-4.9587 3.281-3.8534 4.0826 4.0825-11.111 19.63-23.486 24.033-2.0573 0.732-6.2053 2.9605-9.2178 4.9523-5.8806 3.8881-8.3262 4.5756-7.3648 2.0702zm3.3502-14.699c0.009-1.3783 11.305-10.75 12.957-10.75 2.3011 0 0.72984 2.1809-5.0171 6.9635-6.1878 5.1496-7.9543 5.992-7.9399 3.7865zm6.99-28.19c0-1.7546 0.5872-2.128 4.75-3.0209 4.0327-0.86493 4.2007 0.46908 0.34571 2.7462-3.55 2.09-5.1 2.17-5.1 0.27zm3.0048-23.053c-1.58-1.91 1.02-3.51 5.7-3.51 4.3351 0 5.3512 0.91682 3.05 2.7519-1.9388 1.5461-7.6772 2.0408-8.7452 0.75388zm3-19.54c0-1.0802 0.72704-1.4131 5.25-2.4042 3.0515-0.66864 4.0407 1.7263 1.1682 2.8285-2.51 0.97-6.42 0.71-6.42-0.42zm9.0357-28.403c0.80536-0.7888 2.8143-1.7202 4.4643-2.0697l3-0.6355-2.3608 2.0697c-2.7985 2.4535-7.5657 3.0471-5.1035 0.63549zm-50.63 222.68c1.3358-1.5125 3.8284-4.325 5.5391-6.25 11.565-13.014 17.053-28.352 11.911-33.289-1.27-1.22-1.86-3.2-1.86-6.26 0-2.461-0.44976-5.256-0.99947-6.211-4.7938-8.3286-6.3427-52.036-2.127-60.024 2.3093-4.3758 3.8698-13.886 3.1525-19.213-1.0591-7.8651-0.4283-19.611 1.3929-25.938 1.0295-3.5763 1.5536-9.3952 1.531-17-0.0377-12.723 1.5106-20.225 7.1335-34.562 0.4314-1.1 1.229-3.575 1.7724-5.5 4.0342-14.291 4.0564-14.444 3.1293-21.5-0.50584-3.85-0.93443-7.712-0.95242-8.5822-0.14565-7.0435-8.1158-3.7456-9.0596 3.7487-1.1747 9.3282-2.936 12.833-9.9674 19.834-8.8423 8.8036-16.981 27.046-23.2 52-1.6959 6.8047 0.21652 21.745 3.904 30.5 4.8647 11.55 4.9892 12 3.3164 12-1.4697 0-3.3998-4.3135-7.607-17-4.4897-13.539-4.0682-12.779-6.0127-10.835-1.7455 1.7455 0.22341 14.351 3.1658 20.269 0.95114 1.9129 1.1185 3.2752 0.48085 3.9128-1.0754 1.0754-1.6593-0.18461-4.5631-9.8474-2.4495-8.1509-2.903-8.3866-5.4358-2.8246-1.2083 2.6536-2.6219 5.6175-3.1412 6.5866-1.5962 2.9784-3.6416 9.8027-5.916 19.738-2.4929 10.89-3.9745 16.048-7.0375 24.5-2.2402 6.1817-2.3442 7.3922-3.4096 39.693-0.50689 15.368-0.40598 16.797 1.2711 18 1.0019 0.71892 3.081 3.5628 4.6201 6.3198 1.5392 2.757 4.3669 6.132 6.2838 7.5 1.917 1.368 5.1257 3.8901 7.1305 5.6047 2.0048 1.7145 4.6182 3.4198 5.8076 3.7896 2.1335 0.66329 10.909 9.0766 12.578 12.058 1.3219 2.3621 4.4867 1.8258 7.1728-1.2154zm-14.91-25.23c-2.2-1.5964-5.214-3.1836-6.6978-3.527-3.5448-0.82059-8.3436-5.8098-11.37-11.821-3.9125-7.7719-1.8662-8.0371 4.0627-0.52658 2.1974 2.7836 5.3051 5.7384 6.9059 6.5662 1.6009 0.82783 3.8253 2.3573 4.9433 3.3988 3.1417 2.927 4.9267 2.3104 9.0805-3.1364 2.1098-2.7665 4.9551-5.9104 6.323-6.9863 2.8718-2.259 2.7017-2.357-6.748-3.8888-8.1397-1.3195-21.883-8.0591-26.003-12.751-3.3862-3.8567-3.0992-6.6892 0.35892-3.5421 6.2614 5.6983 18.092 11.041 26.069 11.772 14.741 1.352 16.162 3.304 9.2013 12.646-2.5738 3.4544-6.0203 8.1932-7.6588 10.531-3.5092 5.0061-3.3455 4.9816-8.4666 1.2656zm19.598-96.165c-1.5415-4.4218-1.3748-6.2901 0.73091-8.1958 3.9578-3.5818 7.9442-0.26947 6.7659 5.6219-1.2708 6.3541-5.6544 7.8591-7.4968 2.5739zm4.7027-4.7652c-0.4631-3.9838-2.2618-3.0605-2.6218 1.3459-0.28824 3.5283-0.15486 3.7935 1.3006 2.5856 0.92714-0.76946 1.493-2.4534 1.3212-3.9315zm-4.05-21.17c-2.9-1.69-2.09-9.92 0.97-9.92 1.1006 0 1.3252 0.6097 0.82899 2.25-1.1012 3.6402-1.1116 4.6147-0.0526 4.9414 0.55 0.16971 1.4449-0.70563 1.9887-1.9452 1.2415-2.8298 3.101-2.2986 2.743 0.78351-0.51393 4.4244-3.0014 5.9173-6.4818 3.8901zm0.47789-25.742c-1.4803-3.3732-0.99098-5.2199 1.854-6.9966 4.4226-2.7619 7.3335 0.29896 5.5455 5.8312-1.5391 4.762-5.5443 5.3929-7.3994 1.1655zm4.98-3.18c0.52288-3.5627-1.6594-4.1963-2.583-0.75-0.87827 3.2772-0.78293 3.75 0.75621 3.75 0.77604 0 1.5804-1.3209 1.8268-3zm1.04-18.29c-3.3008-1.0125-4.0571-2.0908-2.25-3.2076 0.55-0.33992 1-1.466 1-2.5023 0-1.799 3.8942-5.4369 4.8243-4.5068 0.24471 0.24471-0.10898 1.7822-0.78599 3.4166-1.4636 3.5335-0.59064 5.7957 1.5508 4.0185 0.78-0.65 1.41-2.02 1.41-3.05 0-1.04 0.46-1.88 1.02-1.88 1.4534 0 0.0786 5.1651-1.8904 7.1023-1.2999 1.2789-2.2846 1.4011-4.8786 0.60534zm7.2786-25.063c-1.1349-0.82984-1.6089-1.9931-1.2225-3 0.81906-2.1344 2.6939-2.1272 2.6939 0.0104 0 1.5171 0.15832 1.5117 1.9007-0.0651 2.3149-2.0949 3.6819-0.54707 2.1103 2.3895-1.2618 2.3577-2.8966 2.5561-5.4824 0.66528zm63.439 195.87c6.9269-1.9164 10.771-1.9016 21.172 0.0813 13.325 2.5405 15.432 1.9573 24.813-6.8676 4.3992-4.1384 10.147-8.5427 12.773-9.7872 2.6259-1.2446 4.9294-2.3824 5.1187-2.5287 0.18938-0.14621-2.0318-2.4359-4.9358-5.0882-2.9041-2.6523-6.2814-5.8573-7.5052-7.1222-2.571-2.6575-2.9716-2.5195-16.103 5.5498-3.804 2.3375-7.7349 4.25-8.7354 4.25s-4.5743 1.3515-7.9418 3.0034c-6.794 3.3327-22.993 7.7393-31.904 8.6786-7.0949 0.74789-7.4118 1.2116-4.6316 6.7784 2.981 5.969 5.6754 6.4289 17.881 3.0523zm10.782 1.771c-1.5125-0.22913-3.9875-0.22913-5.5 0-1.5125 0.22912-0.275 0.41659 2.75 0.41659s4.2625-0.18747 2.75-0.41659zm100.25-41.18c0-0.49116-0.675-1.152-1.5-1.4686-1.5243-0.58492-2.048 0.4803-0.83333 1.695 0.95569 0.9557 2.3333 0.82206 2.3333-0.22634zm74.203-24.003c1.2634-0.49272 4.322-1.4665 6.797-2.1639 14.686-4.1381 25.32-16.45 21.425-24.803-1.9431-4.1667-7.5951-12.238-11.65-16.637-1.5209-1.65-2.7674-3.3375-2.77-3.75-0.021-3.4067-3.8471-4.5291-11.841-3.4737-8.69 1.14-11.16 0.39-11.16-3.42 0-1.301-1.656-2.6746-5.3112-4.4052-3.497-1.6558-7.2944-4.7321-11.117-9.0065l-5.8061-6.4918-2.3827 2.571c-1.31 1.42-2.38 2.94-2.38 3.39 0 1.6 9.3 10.08 11.05 10.08 7.4867 0 6.5473 8.5015-1.2393 11.216-2.914 1.0158-4.1265 8.1617-1.9633 11.571 0.70598 1.1127 10.638-2.6078 17.557-6.5772 0.49748-0.28537 0.60841-0.0398 0.24651 0.5458-0.93 1.5-13.4 8.24-15.26 8.24-0.93705 0-1.3971 0.68441-1.1764 1.75 0.47395 2.2879 4.1523 2.0434 10.114-0.67248 5.1156-2.3304 5.6702-2.4477 5.6702-1.1994 0 0.48295-2.7096 1.8914-6.0212 3.1299-8.1153 3.0349-8.1483 4.4942-0.33123 14.658 1.622 2.1088 3.6818 4.9592 4.5775 6.3342 2.3907 3.6702 8.516 10 9.677 10 0.55217 0 2.0376-0.40314 3.301-0.89586zm3.2213-37.02c1.9452-2.1494 3.5757-2.7168 3.5757-1.2442 0 0.46172-1.2288 1.3994-2.7307 2.0837-2.7238 1.2411-2.726 1.239-0.84501-0.83949zm-9.9323-0.0707c0.91-1.47 4.51-3.24 4.51-2.22 0 0.48107-1.1537 1.4003-2.5637 2.0428-1.4644 0.66721-2.2981 0.73835-1.9443 0.16591zm-1.2301-6.7034c0.92977-0.92976 2.0257-1.3553 2.4353-0.94562 0.40967 0.40966 0.0829 1.1635-0.72619 1.6752-2.4346 1.5397-3.5165 1.0778-1.7091-0.72954zm11.39-1.7228c2.9105-3.4877 5.2292-5.0393 6.1518-4.1168 0.70365 0.70365-6.4148 7.5301-7.8522 7.5301-0.63143 0 0.13377-1.536 1.7004-3.4133zm-7.65-1.6c0-0.55 0.70156-1 1.559-1 0.85746 0 1.2809 0.45 0.94098 1s-1.0415 1-1.559 1c-0.52 0-0.94-0.45-0.94-1zm-312.19 27.06c0.25-0.75-0.125-1.125-0.875-0.875-0.72188 0.24063-1.5094 1.0281-1.75 1.75-0.25 0.75 0.125 1.125 0.875 0.875 0.72188-0.24063 1.5094-1.0281 1.75-1.75zm204.43-21.31c-0.31277-1.2375-0.93435-2.4946-1.3813-2.7935-0.44694-0.29893-4.1989-3.8388-8.3377-7.8663-6.91-6.73-7.52-7.11-7.52-4.71 0 1.8964 0.51866 2.6163 1.885 2.6163 1.0367 0 2.5528 1.0125 3.369 2.25 1.6124 2.4445 11.41 12.75 12.122 12.75 0.24045 0 0.18128-1.0125-0.13148-2.25zm76.76-0.83c0-2.437-2.3368-2.0926-2.8233 0.4162-0.19138 0.98676 0.31876 1.6671 1.25 1.6671 0.92 0 1.57-0.86 1.57-2.08zm-8.5 0.08c-0.33992-0.55-1.4725-1-2.5169-1s-3.7178-1.7303-5.941-3.8452c-5.021-4.7764-5.303-3.5562-0.42575 1.8423 3.3074 3.6609 10.87 6.2173 8.8836 3.0029zm5.9125-5.6048c2.4088-0.92433 0.96593-2.1902-1.877-1.6468-1.3817 0.26413-2.2659 0.87878-1.9648 1.3659 0.6422 1.0391 1.6701 1.1142 3.8418 0.28087zm-203.4-7.4c1.2077-3.575 2.3512-8.075 2.5411-10s0.86216-9.35 1.4939-16.5c1.2117-13.713 1.8765-15.994 9.4745-32.5 2.4051-5.225 4.6192-11.3 4.9201-13.5 1.1688-8.5438 2.2653-13.124 3.878-16.2 2.5878-4.9358 2.1528-5.9141-3.444-7.7447-4.8661-1.5916-10.517-4.883-12.113-7.0549-1.2794-1.7414-0.82321 7.9898 0.59555 12.704 1.5003 4.985 0.39926 12.115-3.4427 22.296-4.6737 12.385-7.7156 34.536-5.6084 40.841 0.63163 1.8901 0.52591 5.9068-0.31582 12-1.7121 12.394-1.9279 23.965-0.41797 22.409 0.13343-0.1375 1.2308-3.175 2.4385-6.75zm127.99 4.5c0-1.4366-0.57634-2.5-1.355-2.5-0.74523 0-2.4504-1.3223-3.7894-2.9385-5.18-6.25-11.86-11.42-11.86-9.18 0 1.3069 0.48786 1.8664 1.3417 1.5388 0.78054-0.29952 2.9676 1.4911 5.2294 4.2814 2.1382 2.6379 4.4624 5.3938 5.1649 6.1242 0.70245 0.73038 1.7401 2.1929 2.3058 3.25 1.44 2.7 2.96 2.4 2.96-0.57zm83.503-2.06c8.339 2.8668 7.6806-1.9468-0.77989-5.7022-7.0944-3.149-7.3612-3.1851-11.016-1.4877-5.8659 2.7242-3.1018 9.0564 3.1436 7.2017 3.9557-1.1747 5.2641-1.1765 8.6522-0.0117zm26.95-1.69c0.94921-3.0555 1.4558-16.381 0.66939-17.607-3.6939-5.7565-7.2356 8.1636-4.1452 16.292 1.0341 2.7199 2.8285 3.3988 3.4758 1.3151zm8.9419-1.3318c0.96594-2.5172 0.70509-6.2396-0.48897-6.9775-2.0484-1.266-4.1645 2.0972-3.4283 5.4488 0.72649 3.3077 2.908 4.159 3.9173 1.5288zm-119.99-1.67c-0.29537-0.6875-1.9594-2.375-3.6979-3.75l-3.1609-2.5 2.9793 3.75c2.9183 3.6732 4.9445 4.9789 3.8795 2.5zm128.23-1.2169c0.52785-1.3756-4.5981-6.8883-5.5364-5.954-0.6044 0.60185 3.2269 7.4209 4.1695 7.4209 0.44219 0 1.0573-0.66009 1.3669-1.4669zm-26.727-11.882c0.18726-8.0763-0.10451-8.5846-6.1581-10.728-7.3428-2.6003-8.8243 3.7814-1.6184 6.971 2.2427 0.9927 2.8782 1.9325 2.8782 4.256 0 9.4767 4.678 9.0005 4.8983-0.49862zm-110.6 3.8916c-0.98817-1.3516-2.4709-2.7304-3.295-3.0639-0.82408-0.33352-0.17738 0.77235 1.4371 2.4575 3.5416 3.6967 4.2976 3.9434 1.8579 0.6064zm8.7 0.57c0-1.1602-0.92358-2.1234-2.3886-2.4911-1.3137-0.32972-3.8165-2.2258-5.5617-4.2134-1.7452-1.9877-3.3821-3.4049-3.6376-3.1494-0.56 0.55 9.76 11.74 10.84 11.74 0.41 0 0.75-0.85 0.75-1.89zm-14-5.486c0-0.20765-0.675-0.93775-1.5-1.6224-1.2285-1.0196-1.5-0.95124-1.5 0.37756 0 0.89234 0.675 1.6224 1.5 1.6224s1.5-0.1699 1.5-0.37756zm87.897-1.5697c5.4924-2.802 7.0275-6.9461 4.0972-11.061-2.8315-3.9765-6.9975-3.4213-11.744 1.565-6.6177 6.9521-1.0121 13.914 7.6467 9.4963zm-6.8603-3.5089c-1.5193-1.8306-0.72476-3.1364 3.1173-5.1233 5.4841-2.8359 7.681-0.16425 3.3918 4.1249-2.7976 2.7977-4.7653 3.0995-6.5091 0.99835zm-68.68 2.96c-0.31659-0.825-1.09-1.5-1.7186-1.5-0.62865 0.00003-2.6381-1.6875-4.4655-3.75-4.0012-4.5161-3.0537-2.2721 1.2591 2.9819 3.068 3.7376 6.0086 5.0918 4.925 2.268zm-59.002-52.943c3.9394-4.2507 8.0978-13.852 9.1198-21.057 1.4459-10.193 7.9314-19.46 14.634-20.909 1.3127-0.28391 4.9809-0.73551 8.1516-1.0036 11.69-0.99 7.52-7.59-4.8-7.59-1.1899 0-2.978-0.9-3.9735-2-2.3756-2.625-3.1401-2.53-5.9533 0.74063-2.7362 3.181-6.5467 1.2462-6.5467-3.3242 0-1.2505-0.675-2.9486-1.5-3.7736-1.9192-1.9192-1.9241-3.0196-0.0102-2.2852 1.9579 0.75132 3.0854-3.5677 1.5755-6.0353-0.99127-1.62-1.0846-1.6315-0.84023-0.10355 0.16415 1.0264-1.5539 3.2422-4.2644 5.5-5.5968 4.6619-10.569 10.226-14.997 16.781-1.8575 2.75-4.4092 5.8202-5.6705 6.8226-3.6196 2.8766-2.9487 8.7074 1.6311 14.177 2.205 2.6336 5.5841 11.352 7.6545 19.75 1.8334 7.4364 2.4527 7.8978 5.7806 4.307zm-60.23-61.56c1.1788 0 0.21985-1.7077-3.2254-5.7437-2.0253-2.3726-3.1761-2.9274-5.25-2.5309-3.4537 0.66022-3.5789 3.8262-0.18499 4.678 1.3591 0.34112 2.9686 1.5498 3.5767 2.686 0.66797 1.2481 1.7013 1.8372 2.6106 1.4882 0.8278-0.31766 1.9406-0.57756 2.473-0.57756zm59.279-22.856c0.29082-0.47055-0.58263-0.64309-1.941-0.38343-1.3584 0.25967-2.4697 0.64466-2.4697 0.85555 0 0.77375 3.8986 0.35644 4.4107-0.47212zm16.59-3.2c0-1.07-0.45-1.94-1-1.94s-1 1.1516-1 2.559c0 1.4514 0.43284 2.2915 1 1.941 0.55-0.33992 1-1.4915 1-2.559zm-20.583-17.584c0.77789-2.0271 0.88422-1.9502-3.6666-2.6525-2.6244-0.40497-3.75-0.20732-3.75 0.65846 0 3.3984 6.2344 5.0746 7.4166 1.994zm18.58-11.67c0-3.08-2.4193-6.4397-3.4437-4.7823-0.84823 1.3725 1.2203 7.0911 2.565 7.0911 0.48327 0 0.87868-1.039 0.87868-2.3089zm2.0513-7.0357c-1.31-3.96-4.05-5.74-4.05-2.62 0 1.0827 0.45965 1.9686 1.0214 1.9686 0.56179 0 1.5349 1.1269 2.1624 2.5042 1.6267 3.5703 2.2309 2.2826 0.86742-1.8488zm-199.04-36.16c1.683-2.029-0.368-5.112-3.867-5.812-3.27-0.654-3.318-0.904-4.71-24.378-0.701-11.821 0.619-15.502 6.224-17.352 4.321-1.426 8.679-8.164 10.802-16.704 0.922-3.709 2.097-8.371 2.609-10.36 0.513-1.989 0.933-4.126 0.933-4.75 0-2.332-31.64-1.308-45.25 1.465-7.2079 1.468 2.966 27.401 10.75 27.401 4.9873 0 10.055 8.3027 6.4342 10.541-1.5411 0.95245-1.061 2.2843 1.0669 2.9596 2.1088 0.66932 2.5829 13.137 0.62 16.306-0.44514 0.71876-0.54822 2.3473-0.22906 3.6189 0.40828 1.6267-0.15668 3.1073-1.9059 4.9947-1.367 1.475-2.486 3.132-2.486 3.682 0 0.54973-1.6039 1.6697-3.5643 2.4888-5.0933 2.1281-4.5205 5.5223 1.1659 6.9087 5.7069 1.3914 19.972 0.71808 21.407-1.0103zm-23.106-10.873c1.326-1.598-0.421-2.617-4.485-2.617-2.2769 0-3.2442 1.8407-1.7515 3.3333 1.1646 1.1646 5.0452 0.71874 6.2364-0.71655zm26.999-1.766c1.738-4.986 1.291-10.741-1.263-16.255-1.298-2.803-2.971-7.234-3.718-9.846-1.4423-5.0458-2.0094-5.5534-3.7975-3.3989-1.9054 2.2958-1.6295 6.1297 0.67395 9.3645 1.896 2.662 2.203 4.407 2.203 12.522 0 5.1859 0.3 9.729 0.66667 10.096 1.6699 1.6699 4.2074 0.46676 5.2355-2.4826zm-26.398-4.8578c0.714-1.155-0.737-1.8-4.968-2.208-2.164-0.208-3.062 0.188-3.324 1.465-0.406 1.9799 7.1114 2.6534 8.2921 0.74294zm6.496-6.938c0-1.099-4.764-3.055-7.44-3.055-2.735 0-4.136 2.578-2.039 3.752 1.691 0.946 9.479 0.374 9.479-0.697zm-3.25-7.685c3.442-0.923 2.703-2.019-2.193-3.251-5.939-1.496-6.557-1.428-6.557 0.714 0 3.172 3.0641 4.0601 8.75 2.5364zm-3.332-11.977c3.808-1.461 1.577-3.393-3.918-3.393-5.2209 0-6.9643 1.2024-4.8333 3.3333 0.83324 0.83324 6.6326 0.87279 8.7515 0.05968zm316.58 630.67c0-0.51754 0.4683-1.2304 1.0407-1.5842 0.57237-0.35375 0.76705-1.5053 0.43261-2.559-0.49-1.54-0.11-1.92 1.9-1.92 3.1615 0 4.5012 1.9585 1.8195 2.6598-1.1045 0.28883-2.2326 1.3835-2.507 2.4327-0.5 1.93-2.68 2.71-2.68 0.97zm-0.28893-8.6813c-1.79-1.79-0.19-2.38 6.49-2.38 5.1375 0 6.8919 0.30813 6.1244 1.0756-1.269 1.269-11.582 2.3336-12.613 1.3021zm-5.46-10.1c-1.7875-0.22182-3.25-0.86113-3.25-1.4207 0-0.9873 29.429-1.0281 31.357-0.0435 3.5179 1.7965-16.87 2.8586-28.107 1.4641zm-97.535-5.895c-0.14776-0.14777-10.832-0.74011-23.742-1.3163-22.265-0.99373-51.133-2.8582-55.473-3.5828-1.1-0.18364-3.9125-0.36733-6.25-0.4082-3.1535-0.0551-4.25-0.47711-4.25-1.6356 0-1.2538 0.83685-1.4562 4.25-1.0275 2.3375 0.29356 8.975 0.78508 14.75 1.0923 5.775 0.30718 12.3 0.77755 14.5 1.0453 6.4185 0.78105 36.594 2.4533 54.5 3.0202 19.276 0.61031 24.026 1.1565 21.931 2.5219-1.2218 0.79622-19.448 1.0584-20.216 0.29078zm100.78-18.13c-9.1883-0.32905-11.313-0.83449-9.8122-2.3348 1.1782-1.1782 40.042 0.59109 44.879 2.0432 2.831 0.84982-15.274 1.0004-35.067 0.29161zm2.33-6.25c-5.3192-0.275-9.9848-0.8156-10.368-1.2013-0.8645-0.87035 4.0857-2.1971 5.3294-1.4284 0.49705 0.3072 9.4101 0.85482 19.807 1.2169 10.397 0.36212 19.321 1.0432 19.831 1.5136 0.94219 0.86828-16.858 0.81644-34.599-0.10078zm4.67-5.55c-0.55-0.20392-3.663-0.50029-6.9179-0.6586-3.9087-0.19011-6.072-0.75153-6.3719-1.6536-0.43924-1.3212 3.1822-1.2408 20.79 0.46161 1.375 0.13295 3.175 0.28517 4 0.33827 1.2215 0.0786 1.2491 0.25555 0.14868 0.95288-1.3506 0.85589-9.7599 1.2598-11.649 0.55948zm8.9102-6.5916c-0.77387-1.2522 2.4862-1.721 8.0058-1.1513 3.0712 0.31698 5.5839 0.85086 5.5839 1.1864 0 0.81927-13.083 0.78546-13.59-0.0351zm-103.18-6.5625c-3.3038-0.635-1.6828-2.2923 2.2421-2.2923 4.1227 0 6.6968 0.90935 5.958 2.1048-0.55949 0.90527-4.0505 0.98511-8.2001 0.18754zm-162.56-268.97c-1.7611-1.7611 0.05387-8.7791 2.733-10.568 1.8084-1.2075 4.8045-0.87179 4.326 0.48469-0.24253 0.6875-1.1838 1.1869-2.0918 1.1097-0.97995-0.0833-1.8994 0.85004-2.2625 2.2966-0.83021 3.3078 0.20451 4.0375 2.6224 1.8493 1.956-1.76 2.006-1.75 2.006 0.65 0 3.8846-4.8608 6.6608-7.3333 4.1883zm9.4085-27.743c-2.5216-3.0383-0.13768-10.99 3.9246-13.09 5.5297-2.8595 8.0094 4.2156 3.7159 10.602-2.527 3.7588-5.7224 4.7996-7.6404 2.4885zm5.9495-6.1557c1.331-3.5 1.227-4.43-0.5-4.43-1.242 0-4.526 4.68-4.526 6.45 0 1.8577 4.1914 0.17656 5.0248-2.0154zm7.1771-20.512c-2.9057-3.3936-0.63785-13.774 3.343-15.302 5.1824-1.9887 8.1965 2.0721 6.3463 8.5504-2.1191 7.4202-6.5018 10.474-9.6893 6.7512zm6.7061-8.0885c1.352-3.8784 0.0445-5.9247-2.6855-4.2029-1.6111 1.0161-3.4758 7.7821-2.4323 8.8256 1.0759 1.0759 4.0759-1.6339 5.1178-4.6226zm4.29-21.03c-3.6123-3.6123 0.36509-14.106 5.7988-15.3 3.8362-0.84258 3.8777-0.80408 4.5861 4.2606 1.0986 7.8539-6.0118 15.412-10.385 11.039zm5.5397-4.05c1.3586-1.7248 2.4483-6.6368 1.7302-7.7987-1.02-1.6504-4.1881 0.80141-5.3528 4.1424-1.5428 4.4256 0.99729 6.9892 3.6225 3.6562zm45.2-85.032c-6.7811-5.295-7.0715-5.678-7.5119-9.9108-0.24725-2.3761 0.10181-5.3561 0.77853-6.6464 1.0389-1.9809 0.96391-2.4861-0.4899-3.2997-3.6613-2.049-2.1551-6.1446 2.0334-5.529 2.0625 0.3031 6.5637 0.78716 10.003 1.0757 8.1078 0.68024 9.7364 1.6505 12.749 7.5947 3.1282 6.1733 3.1269 6.195-0.51899 8.3487-3.391 2.0031-3.0017 4.0767 0.63486 3.3815 1.3105-0.25052 2.3828-0.0538 2.3828 0.43722 0 1.6118-2.9833 2.0795-5.8063 0.91016-2.1681-0.89806-3.9578-0.82584-8.232 0.33216-4.4899 1.2164-5.0613 1.599-3.2116 2.1503 1.2375 0.36882 2.25 1.0681 2.25 1.554 0 1.2799-3.2372 1.025-5.0601-0.39843zm5.06-6.76c0-1.1326-3.7488-2.2337-4.991-1.4659-1.5601 0.9642-1.1951 2.3175 0.74105 2.7476 2.1353 0.47435 4.25-0.16341 4.25-1.2817zm8.7934-6.3546c-4.4135-6.7329-7.9248-7.2309-5.1058-0.72417 1.4754 3.4056 2.2642 4.1184 4.5575 4.1184h2.7733zm-9.6542-2.6391c-2.42-2.02-6.75-2.76-5.64-0.97 0.33992 0.55 1.4649 1 2.5 1s2.1601 0.45 2.5 1c0.33992 0.55 1.154 0.98503 1.809 0.96673 0.65504-0.0183 0.12863-0.9183-1.1698-2zm-122.34-7.51c-0.35424-0.35425 2.8-2.375 7.0095-4.4905 7.4885-3.7635 9.0591-4.1793 7.7433-2.0502-1.7571 2.8431-13.323 7.9708-14.753 6.5408zm178.2-1.27c0-0.44488 0.66069-1.6824 1.4682-2.75 1.4989-1.9817 2.018-0.87182 0.92481 1.9771-0.62 1.63-2.39 2.2-2.39 0.77zm-12.984-28.643c-0.62664-1.8987-2.0115-3.729-3.0776-4.0674-2.5813-0.81927-2.5023-2.4407 0.0859-1.7638 2.53 0.66161 5.9759 4.9392 5.9759 7.4183 0 3.056-1.761 2.1194-2.9842-1.5871z"/>
</svg>
