<?xml version="1.0" encoding="UTF-8"?>
<!DOCTYPE svg PUBLIC "-//W3C//DTD SVG 1.1//EN" "http://www.w3.org/Graphics/SVG/1.1/DTD/svg11.dtd">
<svg version="1.1" xmlns="http://www.w3.org/2000/svg" xmlns:xlink="http://www.w3.org/1999/xlink" x="0" y="0" width="477.754" height="615.806" viewBox="0, 0, 477.754, 615.806">
  <g id="Layer_1">
    <path d="M164.24,614.646 C161.941,611.875 168.004,598.066 176.536,586.643 C192.94,564.68 204.437,555.229 236.195,537.599 C237.662,536.785 239.937,535.308 241.25,534.318 C242.564,533.328 243.84,532.518 244.088,532.518 C244.827,532.518 259.635,523.541 274.488,514.087 C277.994,511.855 281.157,509.929 281.517,509.806 C282.44,509.49 277.02,501.222 275.278,500.29 C274.485,499.865 271.941,499.518 269.625,499.518 C267.137,499.518 264.431,499.003 263.013,498.26 C258.183,495.727 254.702,495.769 246.996,498.453 C238.96,501.251 238.922,501.234 239.352,495.035 C239.496,492.963 239.297,491.268 238.911,491.268 C237.967,491.268 208.431,513.737 199.488,521.257 C195.569,524.552 186.744,531.82 179.876,537.407 C172.315,543.559 162.404,552.669 154.751,560.502 C143.058,572.47 137.127,577.851 119.669,592.331 C113.53,597.422 112.191,599.387 116.827,596.501 C124.393,591.789 131.331,587.072 134.121,584.741 C137.287,582.096 139.123,581.276 138.613,582.733 C138.475,583.127 135.325,590.375 131.613,598.84 C126.559,610.365 124.533,614.236 123.55,614.25 C121.848,614.273 121.91,612.428 123.738,608.643 C126.14,603.672 125.428,603.926 122.052,609.247 L118.867,614.268 L106.302,614.268 C96.464,614.268 93.738,614.056 93.738,613.289 C93.738,612.75 95.382,609.78 97.392,606.688 C99.401,603.596 101.606,600.071 102.292,598.855 C107.754,589.167 118.663,572.6 141.037,540.018 C147.903,530.019 148.371,531.537 136.558,525.487 C111.316,512.56 82.878,495.481 76.488,489.411 C72.781,485.891 62.042,477.021 52.607,469.687 C49.196,467.036 44.986,462.865 42.964,460.134 C40.11,456.278 39.274,455.553 38.878,456.59 C38.603,457.307 38.459,455.868 38.558,453.393 C38.66,450.823 39.393,447.446 40.268,445.518 C41.11,443.662 42.224,440.793 42.744,439.143 C43.263,437.493 46.543,429.056 50.032,420.393 C53.521,411.731 58.19,399.344 60.406,392.867 C67.164,373.12 76.161,351.444 84.43,334.985 C88.757,326.373 92.173,319.204 92.023,319.053 C91.872,318.902 89.928,321.055 87.703,323.836 C81.647,331.407 77.926,335.268 76.688,335.268 C75.564,335.268 72.569,333.638 53.492,322.641 C47.651,319.273 42.536,316.518 42.125,316.518 C41.714,316.518 39.068,315.46 36.245,314.166 C32.244,312.332 29.749,311.732 24.925,311.447 C21.522,311.245 18.738,310.826 18.738,310.516 C18.738,310.206 20.425,308.52 22.488,306.768 C24.55,305.017 26.238,303.346 26.238,303.054 C26.238,302.763 24.593,301.754 22.583,300.813 C20.572,299.871 17.995,298.357 16.855,297.448 L14.783,295.796 L19.747,292.254 C26.285,287.589 38.992,274.909 41.011,271.035 C41.89,269.348 43.943,266.207 45.572,264.054 C47.201,261.902 50.211,256.879 52.26,252.892 C54.309,248.905 58.459,241.087 61.482,235.518 C67.087,225.195 73.164,213.217 74.258,210.34 C74.852,208.78 74.654,208.731 65.809,208.255 C60.828,207.987 51.175,207.768 44.357,207.768 C33.467,207.768 31.583,207.585 28.842,206.258 C25.355,204.57 21.5,200.213 20.722,197.081 L20.209,195.018 L13.072,195.018 C7.696,195.018 5.433,194.707 3.899,193.758 C-0.109,191.278 -0.911,188.959 0.962,185.268 L1.913,183.393 L32.638,183.393 C62.74,183.393 63.424,183.36 66.363,181.766 C68.013,180.871 71.304,179.775 73.675,179.329 C86.187,176.977 86.238,176.962 86.238,175.487 C86.238,174.542 85.495,173.864 84.035,173.477 L81.831,172.893 L86.375,169.272 C88.874,167.281 91.385,165.473 91.954,165.255 C93.092,164.818 93.348,163.079 92.364,162.471 C92.021,162.259 88.225,164.767 83.927,168.043 C79.629,171.32 75.804,174.004 75.427,174.009 C74.21,174.026 64.204,169.038 58.833,165.738 C55.962,163.974 44.617,158.048 33.623,152.57 C22.628,147.092 13.381,142.201 13.072,141.702 C12.45,140.695 16.54,136.626 31.853,123.018 C37.191,118.275 43.226,112.754 45.263,110.751 C47.301,108.748 50.724,105.711 52.87,104.001 C55.016,102.292 61.256,97.181 66.738,92.643 C72.219,88.106 78.926,82.578 81.642,80.359 C88.681,74.608 104.972,67.492 131.774,58.462 C147.058,53.312 157.949,47.931 162.925,43.07 C168.93,37.205 167.947,36.323 154.332,35.364 C144.435,34.667 142.055,34.084 139.3,31.681 C137.402,30.025 137.678,28.173 140.263,25.229 L142.538,22.638 L140.842,21.451 C139.55,20.546 139.147,19.531 139.147,17.186 C139.147,11.304 141.91,10.227 163.011,7.89 C171.824,6.914 186.12,6.76 256.761,6.884 L340.113,7.03 L355.488,3.947 C381.932,-1.354 381.229,-1.36 383.163,4.199 C384.698,8.612 383.343,10.951 377.613,13.779 C370.989,17.049 366.575,18.47 350.439,22.524 C335.626,26.247 322.488,30.496 322.488,31.564 C322.488,31.889 328.361,32.189 335.538,32.231 C349.438,32.313 369.611,30.655 376.596,28.858 C378.925,28.258 381.148,27.768 381.538,27.768 C382.453,27.768 383.757,30.651 384.406,34.108 C384.875,36.611 384.664,37.071 381.784,39.81 L378.652,42.79 L380.195,44.958 C382.99,48.884 382.111,50.357 376.103,51.815 C374.046,52.314 372.025,53.044 371.613,53.437 C370.052,54.925 390.312,52.345 397.286,50.168 C404.222,48.003 400.944,53.203 390.363,61.151 C380.229,68.763 374.988,73.345 374.988,74.592 C374.988,75.77 384.603,80.784 388.13,81.446 C389.565,81.715 390.738,82.205 390.738,82.535 C390.738,83.306 386.343,87.018 385.43,87.018 C385.05,87.018 384.738,87.294 384.738,87.631 C384.738,87.968 386.594,88.829 388.863,89.545 C393.334,90.954 393.884,91.736 391.356,93.089 C389.736,93.956 389.74,93.971 391.918,95.089 C393.125,95.709 394.272,96.359 394.466,96.533 C395.118,97.117 392.634,98.245 390.67,98.257 C384.304,98.294 361.488,107.376 361.488,109.873 C361.488,110.363 362.341,111.221 363.383,111.779 C365.633,112.983 366.443,115.517 365.275,117.698 C364.813,118.562 364.634,119.268 364.877,119.268 C366.156,119.268 379.746,115.132 385.727,112.922 C393.103,110.197 401.768,108.587 405.259,109.292 C406.741,109.591 408.368,111.03 410.509,113.934 C415.401,120.568 428.77,133.555 435.55,138.259 C438.954,140.62 441.738,142.766 441.738,143.027 C441.738,143.288 440.915,144.581 439.908,145.901 C436.577,150.268 420.834,156.264 410.285,157.184 C406.381,157.525 404.194,158.052 403.94,158.712 C403.396,160.13 403.869,160.298 411.009,161.234 C418.985,162.279 426.647,164.516 429.243,166.558 C430.774,167.762 431.238,168.786 431.238,170.959 C431.238,173.545 431.502,173.91 434.292,175.168 C438.377,177.01 440.431,179.681 439.839,182.379 L439.381,184.463 L443.713,184.411 C447.318,184.368 448.272,184.638 449.392,186.022 C451.017,188.028 451.062,189.042 449.673,192.365 C448.254,195.761 445.462,196.47 435.506,195.962 L427.65,195.561 L426.163,198.923 C423.704,204.482 420.969,206.219 412.488,207.607 C411.044,207.844 402.822,208.003 394.216,207.961 L378.569,207.885 L362.488,215.782 C353.644,220.125 343.304,225.725 339.51,228.227 C330.837,233.946 313.507,243.186 312.313,242.727 C311.818,242.538 310.337,240.5 309.021,238.2 C307.705,235.9 306.453,234.018 306.24,234.018 C306.027,234.018 302.671,235.419 298.783,237.131 C294.894,238.843 291.466,239.996 291.163,239.693 C290.861,239.391 290.386,233.518 290.109,226.643 C289.445,210.202 289.118,208.521 286.577,208.508 C285.497,208.502 283.81,208.282 282.828,208.02 L281.042,207.542 L283.015,210.908 C286.838,217.431 285.329,219.018 275.305,219.018 C269.831,219.018 269.197,219.194 265.042,221.861 C262.606,223.424 258.926,225.329 256.863,226.095 C249.3,228.902 246.047,230.956 244.008,234.216 C237.686,244.321 233.63,249.866 231.175,251.757 C225.049,256.478 218.138,260.602 208.848,265.081 C200.688,269.015 198.49,270.448 195.475,273.802 C191.536,278.183 188.678,283.129 189.24,284.593 C189.436,285.105 191.861,285.898 194.629,286.357 C197.396,286.815 199.796,287.326 199.962,287.492 C200.128,287.658 199.077,289.765 197.626,292.174 C194.635,297.141 194.564,297.533 196.108,300.495 C197.587,303.33 197.605,307.518 196.139,307.518 C194.96,307.518 193.488,309.731 193.488,311.502 C193.488,312.606 203.423,320.543 213.524,327.507 C221.022,332.678 223.385,335.058 224.17,338.232 C224.532,339.696 225.22,346.968 225.699,354.393 C227.161,377.084 228.703,393.802 229.465,395.225 C230.078,396.37 235.977,399.24 240.998,400.836 C242.107,401.189 239.789,403.775 229.373,413.804 C212.367,430.179 205.594,437.002 202.854,440.517 L200.613,443.391 L196.358,440.329 C194.018,438.646 191.837,437.268 191.511,437.268 C191.186,437.268 190.216,438.15 189.356,439.228 L187.794,441.188 L183.279,436.041 C175.824,427.539 175.634,427.041 176.016,417.018 C176.261,410.575 175.973,406.306 174.878,400.143 C172.807,388.494 170.83,383.663 166.343,379.283 C164.31,377.298 162.312,375.785 161.904,375.921 C161.001,376.222 143.988,415.327 143.988,417.101 C143.988,417.402 144.982,417.867 146.196,418.134 C147.779,418.481 148.973,419.589 150.41,422.041 C151.513,423.923 153.219,426.647 154.202,428.095 C155.189,429.55 155.988,431.832 155.988,433.197 C155.988,434.901 156.395,435.788 157.301,436.058 C161.461,437.296 176.532,441.048 180.363,441.799 C186.882,443.077 192.213,445.951 197.997,451.306 C200.796,453.898 203.267,456.018 203.488,456.018 C203.708,456.018 208.383,453.828 213.876,451.15 C219.369,448.473 224.295,446.279 224.822,446.275 C225.35,446.273 230.412,447.8 236.072,449.673 C248.449,453.768 252.946,454.36 259.221,452.721 C261.756,452.06 265.047,451.518 266.534,451.518 C268.721,451.518 269.238,451.237 269.238,450.046 C269.238,447.373 266.078,439.975 262.671,434.675 C260.235,430.884 259.509,429.152 260.02,428.343 C260.724,427.226 267.627,424.504 273.504,423.025 L276.646,422.235 L275.298,418.314 C274.556,416.157 273.214,411.187 272.315,407.268 C269.878,396.643 269.706,396.342 265.237,394.891 C257.4,392.347 254.325,388.374 254.044,380.429 C253.919,376.919 254.481,374.65 257.146,367.893 C260.639,359.039 261.774,352.1 260.381,348.105 C259.662,346.044 259.78,345.648 261.51,344.287 C262.742,343.317 264.563,342.768 266.547,342.768 L269.653,342.768 L269.383,339.942 C269.18,337.815 269.769,335.858 271.763,332.033 L274.412,326.95 L272.013,325.548 C260.427,318.779 257.451,310.038 264.024,302.081 C266.154,299.502 266.666,299.268 270.169,299.268 C273.076,299.268 274.995,299.836 278.177,301.638 C281.499,303.518 283.236,304.008 286.591,304.013 C290.63,304.018 291.03,303.837 295.538,299.956 C305.891,291.041 312.886,281.304 315.018,272.834 C316.02,268.855 316.475,268.589 326.739,265.987 C330.795,264.958 338.669,262.436 344.238,260.382 L354.363,256.648 L354.369,253.77 C354.372,252.188 354.642,250.477 354.967,249.969 C355.293,249.46 358.496,248.152 362.086,247.062 C369.483,244.816 376.717,241.424 379.487,238.903 C383.741,235.032 397.953,224.9 401.701,223.067 C410.496,218.764 421.074,220.076 429.639,226.531 C432.374,228.592 435.878,230.627 437.425,231.052 C440.529,231.906 441.039,232.912 438.737,233.643 C437.168,234.141 436.654,235.518 438.038,235.518 C438.481,235.518 438.638,236.15 438.388,236.936 C438.049,238.004 439.434,239.879 443.991,244.522 C447.321,247.915 450.751,252.086 451.615,253.792 C452.478,255.497 455.442,259.762 458.202,263.268 C464.144,270.819 465.832,273.53 467.957,278.931 C469.896,283.862 469.682,284.853 467.117,282.834 L465.157,281.293 L464.781,283.259 C464.504,284.709 465.078,286.106 466.962,288.576 C470.523,293.241 475.159,303.243 476.56,309.286 C479.729,322.952 476.495,339.239 468.005,352.367 C462.122,361.465 458.647,368.795 456.2,377.268 C455.94,378.17 455.626,378.076 454.619,376.794 C453.928,375.915 452.988,374.565 452.53,373.794 C451.796,372.557 451.414,372.956 449.27,377.204 C446.273,383.141 445.122,386.796 443.231,396.393 C441.622,404.559 438.652,414.274 436.439,418.611 C435.669,420.122 433.401,423.139 431.399,425.316 C426.905,430.203 425.611,429.898 426.332,424.124 C426.83,420.14 425.807,417.791 424.865,420.757 C424.329,422.449 422.982,422.713 421.656,421.388 C420.982,420.713 420.323,420.996 418.845,422.59 C417.372,424.18 416.523,424.545 415.263,424.13 C410.334,422.505 407.712,422.861 402.859,425.813 C400.245,427.403 396.318,430.28 394.133,432.207 C390.352,435.54 390.162,435.884 390.205,439.301 C390.231,441.277 389.65,444.69 388.915,446.886 L387.58,450.879 L389.346,452.759 C391.058,454.581 391.128,455.159 391.62,471.604 L392.127,488.57 L389.83,491.186 L387.533,493.803 L387.978,503.223 C388.222,508.404 389.115,515.681 389.962,519.393 C391.465,525.981 392.383,528.906 396.308,539.622 C398.374,545.26 400.12,554.786 400.854,564.427 C401.491,572.793 399.935,579.563 394.187,593.435 C391.575,599.737 388.876,606.615 388.189,608.719 C385.771,616.129 392.103,615.365 331.173,615.6 L277.487,615.806 L277.493,614.1 C277.498,612.133 284.374,599.488 290.711,589.788 C294.943,583.311 299.625,577.214 306.149,569.686 C307.917,567.646 308.856,566.195 308.237,566.46 C307.619,566.725 303.062,568.597 298.112,570.619 C284.945,575.999 283.113,577.084 279.814,581.46 C276.113,586.37 270.096,598.374 267.128,606.768 C265.888,610.274 264.638,613.734 264.35,614.455 C263.859,615.687 260.779,615.768 214.499,615.768 C171.617,615.768 165.049,615.621 164.24,614.646 z M340.564,584.455 C348.341,576.055 363.16,563.505 373.649,556.435 C384.072,549.408 384.7,548.849 383.886,547.327 C382.547,544.826 380.326,543.157 374.613,540.357 C366.134,536.201 357.587,535.41 347.613,537.858 C343.515,538.863 329.694,544.382 327.993,545.692 C326.771,546.633 327.107,546.701 330.925,546.283 C335.472,545.786 336.019,546.162 333.997,548.397 C332.803,549.716 333.012,549.769 339.434,549.78 C347.434,549.794 348.977,550.426 346.833,552.813 C346.025,553.713 343,556.241 340.113,558.43 C334.004,563.062 326.48,570.511 327.191,571.222 C327.461,571.492 330.479,570.823 333.898,569.737 C341.216,567.411 342.743,567.297 342.723,569.081 C342.709,570.424 339.362,580.163 337.183,585.206 C336.515,586.753 336.26,588.018 336.616,588.018 C336.973,588.018 338.749,586.415 340.564,584.455 z M231.363,577.575 C237.55,575.981 249.363,573.097 257.613,571.166 C275.205,567.047 292.445,562.064 293.861,560.688 C294.691,559.881 294.597,558.865 293.299,554.664 C291.776,549.734 291.292,542.886 292.221,539.418 C292.619,537.929 293.004,537.761 295.023,538.198 C296.31,538.476 299.837,540.058 302.86,541.712 C308.229,544.649 308.428,544.695 311.429,543.705 C313.119,543.147 315.449,542.005 316.606,541.167 C324.839,535.207 337.229,525.303 341.968,520.895 C345.073,518.006 349.725,513.818 352.307,511.587 C354.889,509.357 356.872,507.402 356.713,507.244 C355.475,506.005 324.858,527.1 319.488,532.892 C314.35,538.433 308.502,538.964 298.488,534.799 C295.394,533.512 292.54,532.388 292.146,532.301 C290.946,532.037 288.693,546.865 289.274,551.198 C289.774,554.931 288.907,555.526 276.618,559.886 C271.527,561.691 261.963,565.186 255.363,567.653 C248.763,570.12 237.372,574.043 230.05,576.371 C222.729,578.7 216.738,580.793 216.738,581.024 C216.738,581.254 217.497,581.225 218.425,580.958 C219.354,580.691 225.175,579.168 231.363,577.575 z M157.45,521.831 C160.615,518.428 166.002,512.507 169.421,508.674 C172.84,504.841 176.363,501.235 177.25,500.66 C178.137,500.085 182.407,499.039 186.738,498.335 C191.069,497.63 194.739,496.948 194.893,496.819 C195.047,496.689 193.781,495.002 192.08,493.07 C190.38,491.138 188.988,489.168 188.988,488.693 C188.988,487.885 193.915,484.754 201.738,480.59 C207.69,477.422 219.778,470.058 219.494,469.774 C218.714,468.994 188.555,484.101 184.541,487.282 C184.364,487.422 184.771,488.693 185.444,490.107 L186.67,492.676 L182.391,493.483 C171.292,495.578 172.334,494.747 162.588,509.294 C153.202,523.306 150.328,528.018 151.168,528.018 C151.457,528.018 154.284,525.234 157.45,521.831 z M279.595,491.268 C280.444,488.174 281.366,485.053 281.644,484.331 C281.921,483.609 281.821,483.018 281.421,483.018 C280.475,483.018 277,490.833 276.337,494.45 C276.055,495.994 276.065,497.85 276.36,498.575 C276.853,499.787 276.943,499.773 277.474,498.393 C277.792,497.568 278.746,494.362 279.595,491.268 z M319.863,491.955 C329.499,487.727 329.503,487.714 321.249,487.703 C317.187,487.697 313.207,487.569 312.405,487.418 C311.306,487.211 310.257,488.25 308.139,491.643 C306.594,494.118 305.309,496.56 305.284,497.07 C305.233,498.094 308.401,496.983 319.863,491.955 z M245.886,483.828 C247.912,479.736 250.525,475.096 251.691,473.516 C256.614,466.85 263.548,459.018 264.527,459.018 C265.107,459.018 266.566,461.128 267.768,463.706 C268.971,466.284 270.399,468.954 270.943,469.639 C271.977,470.943 279.113,472.584 283.063,472.427 C284.328,472.377 282.691,471.886 279.425,471.337 C276.159,470.788 272.953,469.808 272.3,469.158 C271.647,468.509 269.763,465.213 268.113,461.834 C266.463,458.454 264.75,455.586 264.305,455.46 C263.043,455.1 257.226,460.038 253.288,464.81 C248.83,470.212 242.464,482.961 241.854,487.706 C241.602,489.665 241.577,491.268 241.799,491.268 C242.021,491.268 243.86,487.92 245.886,483.828 z M343.042,481.006 C352.639,475.697 371.874,461.31 377.7,455.082 C383.289,449.107 386.39,443.778 386.086,440.672 L385.863,438.393 L369.363,437.921 C349.17,437.342 342.06,436.539 322.975,432.68 C314.787,431.024 307.966,429.79 307.819,429.938 C307.671,430.085 307.162,432.723 306.688,435.8 C305.329,444.621 299.213,459.842 293.25,469.246 C292.006,471.207 290.988,473.09 290.988,473.43 C290.988,473.771 295.513,473.958 301.042,473.846 C310.86,473.648 311.144,473.687 313.1,475.516 C315.092,477.377 315.301,479.162 313.906,482.41 C313.153,484.165 317.108,484.831 325.256,484.323 C330.315,484.007 331.679,484.143 332.006,484.995 C332.572,486.47 334.28,485.853 343.042,481.006 z M306.677,480.492 C307.535,479.103 308.238,477.753 308.238,477.492 C308.238,477.231 306.744,477.018 304.919,477.018 L301.599,477.018 L302.856,480.011 C303.547,481.656 304.339,483.006 304.614,483.011 C304.89,483.016 305.818,481.881 306.677,480.492 z M277.275,475.806 C276.484,475.015 269.237,474.5 269.245,475.235 C269.248,475.597 270.515,476.628 272.058,477.526 C274.814,479.13 274.888,479.134 276.321,477.734 C277.123,476.951 277.553,476.083 277.275,475.806 z M211.35,458.531 C218.407,455.602 221.316,455.329 234.833,456.331 C243.496,456.973 248.334,456.554 247.034,455.275 C246.665,454.912 244,453.954 241.113,453.146 C238.225,452.338 233.902,450.956 231.505,450.075 C226.386,448.193 225.93,448.278 214.488,453.251 C210.157,455.133 201.724,458.59 195.748,460.934 C178.397,467.738 176.926,468.47 177.486,470.036 C178.657,473.313 179.025,473.24 192.204,467.118 C199.304,463.819 207.92,459.955 211.35,458.531 z M287.228,466.899 C288.632,466.172 290.595,463.642 292.815,459.693 C294.698,456.345 296.238,453.275 296.238,452.87 C296.238,452.465 294.518,450.223 292.417,447.888 C290.315,445.554 287.058,441.017 285.177,437.808 C280.854,430.428 277.909,427.786 273.226,427.083 C270.142,426.621 263.679,427.577 262.601,428.655 C262.435,428.822 263.646,430.575 265.293,432.551 C271.648,440.173 276.709,450.065 280.178,461.643 C282.222,468.468 283.029,469.07 287.228,466.899 z M194.988,456.447 C196.844,455.951 198.363,455.165 198.363,454.7 C198.363,453.253 187.732,445.719 183.953,444.487 C181.979,443.843 177.663,442.784 174.363,442.132 C171.063,441.481 165.494,440.127 161.988,439.123 C150.49,435.832 136.584,434.927 128.721,436.959 C123.919,438.2 106.722,446.003 107.367,446.648 C107.571,446.851 110.24,446.036 113.3,444.836 C116.36,443.636 120.55,442.142 122.613,441.515 C127.628,439.992 138.424,438.568 140.341,439.176 C141.835,439.65 141.823,439.723 139.896,441.733 L137.914,443.803 L141.513,444.735 C143.493,445.249 147.982,446.455 151.488,447.417 C154.994,448.379 158.915,449.375 160.2,449.63 C161.485,449.885 165.873,451.361 169.95,452.911 C176.954,455.573 177.368,455.85 177.449,457.936 C177.497,459.15 177.581,460.341 177.637,460.583 C177.726,460.97 180.778,460.242 194.988,456.447 z M109.679,433.677 C111.321,432.591 112.27,431.57 111.787,431.41 C111.082,431.175 99.125,433.559 95.485,434.66 C95.002,434.806 93.289,436.887 91.678,439.284 C87.358,445.714 87.23,446.021 89.65,444.165 C96.234,439.114 96.697,439.165 94.515,444.698 C93.675,446.83 92.988,448.692 92.988,448.837 C92.988,448.982 96.072,446.075 99.841,442.377 C103.61,438.679 108.038,434.764 109.679,433.677 z M109.92,441.4 C113.442,438.714 122.336,434.276 124.206,434.272 C125.082,434.27 127.243,433.759 129.007,433.136 C130.772,432.514 134.026,431.792 136.239,431.532 C139.565,431.141 140.535,431.305 141.828,432.476 C143.056,433.587 144.55,433.893 148.753,433.893 C153.82,433.893 154.127,433.796 154.364,432.117 C154.517,431.04 153.746,429.123 152.405,427.242 C151.189,425.538 149.661,423.099 149.008,421.823 C147.941,419.738 147.228,419.381 141.967,418.3 C129.536,415.744 125.528,415.352 121.152,416.26 C117.117,417.098 115.441,418.518 118.488,418.518 C120.724,418.518 120.334,419.564 116.8,423.048 C115.047,424.776 114.163,426.009 114.835,425.787 C115.508,425.566 119.253,424.282 123.158,422.934 L130.257,420.483 L137.685,422.313 L145.113,424.143 L145.346,426.956 L145.579,429.768 L135.387,429.768 C125.576,429.768 125.03,429.852 120.783,431.996 C117.22,433.794 111.04,438.288 106.15,442.635 C104.424,444.17 107.692,443.1 109.92,441.4 z M303.334,436.382 C303.969,434.245 304.488,430.87 304.488,428.882 C304.488,426.894 304.573,425.268 304.678,425.268 C304.782,425.268 307.229,425.949 310.115,426.781 C327.205,431.707 353.402,435.011 375.403,435.016 L387.444,435.018 L389.767,432.58 C391.045,431.24 393.136,428.474 394.414,426.434 C396.635,422.889 396.738,422.37 396.738,414.741 C396.738,406.918 394.747,395.976 393.006,394.236 C392.558,393.787 391.012,394.707 388.825,396.723 L385.356,399.921 L379.609,399.566 C376.449,399.371 371.357,398.645 368.295,397.952 C359.333,395.926 351.354,396.248 340.863,399.058 C327.772,402.564 328.488,402.486 328.488,400.403 C328.488,398.881 329.116,398.425 332.696,397.346 C335.01,396.648 341.305,393.639 346.683,390.66 C354.474,386.344 357.564,384.127 361.879,379.755 C364.858,376.737 367.512,374.268 367.777,374.268 C368.042,374.268 367.365,375.62 366.271,377.272 C364.489,379.965 364.335,380.722 364.786,384.564 C365.378,389.598 367.992,394.455 371.428,396.906 C373.44,398.341 374.815,398.643 379.343,398.643 L384.823,398.643 L388.968,394.331 C391.249,391.959 396.545,387.361 400.739,384.114 C407.809,378.638 408.456,377.917 409.641,374.176 C411.446,368.481 411.944,354.564 410.475,350.891 C408.201,345.207 400.96,342.068 392.545,343.118 C388.665,343.602 387.749,344.053 385.193,346.739 C380.505,351.665 378.692,356.479 378.664,364.078 C378.641,370.35 378.593,370.518 376.858,370.518 C374.372,370.518 374.009,369.518 375.339,366.334 C376.744,362.973 376.87,357.796 375.551,357.698 C368.668,357.188 360.518,359.527 353.99,363.886 C351.529,365.529 349.219,366.69 348.856,366.466 C347.905,365.878 341.634,350.812 339.798,344.704 C337.73,337.825 337.786,336.891 340.301,336.365 C346.652,335.036 352.869,333.493 358.818,331.768 L365.522,329.823 L367.443,332.051 C368.499,333.276 371.241,336.61 373.536,339.461 C375.831,342.311 378.578,345.102 379.641,345.663 C381.374,346.578 381.736,346.52 383.156,345.1 C384.026,344.23 384.738,343.234 384.738,342.887 C384.738,342.1 376.35,334.065 372.516,331.18 C370.95,330.001 369.938,328.807 370.266,328.526 C370.594,328.244 373.704,327.424 377.177,326.702 C386.303,324.806 404.142,318.356 410.04,314.82 C418.406,309.805 423.503,305.447 424.803,302.2 C425.547,300.34 426.458,299.271 427.295,299.275 C430.375,299.292 436.333,302.977 440.147,307.224 C444.005,311.521 448.488,319.101 448.488,321.327 C448.488,321.933 448.874,322.668 449.346,322.96 C450.781,323.846 449.36,312.842 447.545,309.018 C445.517,304.741 442.476,301.77 436.414,298.138 C429.341,293.902 422.459,288.147 419.378,283.893 C411.822,273.456 406.205,268.563 396.855,264.27 C387.563,260.004 380.35,258.5 371.615,259.006 C364.189,259.437 363.164,259.572 355.863,261.074 C350.361,262.207 335.758,267.271 335.478,268.143 C335.335,268.59 337.693,268.982 341.312,269.111 C348.879,269.382 354.466,271.18 356.552,274.015 C357.995,275.977 358.107,277.084 358.033,288.64 C357.958,300.449 356.965,308.998 354.684,317.468 C353.394,322.259 353.138,320.256 353.948,311.709 C354.365,307.304 354.933,298.671 355.211,292.525 C355.657,282.642 355.565,281.121 354.413,279.364 C352.355,276.224 347.014,274.223 340.763,274.251 C335.755,274.273 334.82,274.566 326.138,278.835 C315.64,283.998 312.172,286.692 306.222,294.303 C301.562,300.265 299.795,301.964 294.373,305.695 C289.668,308.932 287.137,308.984 278.733,306.018 C275.227,304.78 271.533,303.768 270.524,303.768 C265.298,303.768 262.487,310.636 265.387,316.321 C266.853,319.193 273.202,325.518 274.62,325.518 C274.989,325.518 274.914,324.814 274.454,323.954 C273.29,321.779 274.017,321.383 277.296,322.409 C281.338,323.674 286.073,327.178 286.353,329.112 C286.568,330.597 286.264,330.768 283.412,330.768 C280.626,330.768 279.834,331.183 277.028,334.11 C275.267,335.949 273.465,338.126 273.024,338.95 C272.306,340.293 272.51,340.501 275.003,340.969 C277.024,341.348 278.99,342.701 282.198,345.919 L286.613,350.347 L290.676,341.888 C295.653,331.523 295.949,328.354 292.437,323.051 C291.171,321.14 288.96,318.85 287.523,317.962 C284.374,316.016 284.69,315.306 288.189,316.46 C291.665,317.607 294.697,320.966 296.161,325.29 C296.832,327.272 297.687,329.062 298.061,329.268 C298.436,329.474 299.532,328.149 300.498,326.322 C302.669,322.217 302.85,322.035 303.378,323.412 C303.612,324.021 301.117,330.229 297.834,337.206 C291.189,351.329 289.537,356.262 288.839,364.071 C288.48,368.09 288.088,369.393 287.238,369.393 C286.338,369.393 286.069,368.048 285.894,362.667 C285.658,355.417 285.061,354.12 280.992,352.016 C278.215,350.58 270.445,348.109 266.949,347.55 L264.19,347.109 L263.803,353.001 C263.552,356.827 262.45,361.917 260.66,367.518 C259.143,372.262 257.716,378.168 257.488,380.643 C257.127,384.563 257.295,385.422 258.789,387.306 C261.276,390.441 267.107,392.713 276.43,394.18 C286.728,395.801 286.488,395.728 286.488,397.227 C286.488,398.339 285.8,398.426 280.504,397.985 L274.519,397.486 L274.991,399.939 C276.273,406.602 281.198,418.65 284.627,423.509 C288.833,429.468 299.422,440.268 301.06,440.268 C301.761,440.268 302.612,438.813 303.334,436.382 z M380.01,390.915 C378.674,390.753 377.61,390.009 377.092,388.873 C375.77,385.971 377.579,382.751 381.706,380.659 C387.011,377.971 387.43,377.205 386.376,372.104 C384.935,365.128 385.243,360.444 387.447,355.785 C389.709,351.003 392.731,348.775 396.963,348.771 C400.292,348.768 403.13,350.091 405.704,352.846 C410.524,358.005 406.956,376.413 400.336,380.544 C398.384,381.762 397.773,380.448 399.235,378.175 C403.233,371.961 406.155,362.873 405.343,359.176 C403.985,352.993 397.934,351.114 394.09,355.682 C392.255,357.863 392.097,358.514 392.453,362.433 C392.717,365.354 393.606,368.117 395.173,370.894 C396.453,373.162 397.277,375.018 397.003,375.018 C396.729,375.018 395.398,374.174 394.046,373.143 C392.694,372.112 391.228,371.268 390.788,371.268 C389.656,371.268 389.843,374.297 391.113,376.518 C391.702,377.549 392.186,379.912 392.186,381.768 C392.189,387.732 386.852,391.742 380.01,390.915 z M312.738,335.544 C312.738,335.283 313.448,333.922 314.315,332.518 C315.743,330.208 315.842,329.307 315.361,323.054 C315.028,318.738 314.418,315.679 313.736,314.907 C312.766,313.809 312.833,313.537 314.334,312.485 C315.654,311.561 316.039,310.537 316.09,307.818 C316.145,304.887 315.885,304.211 314.447,303.556 C313.507,303.128 312.738,302.464 312.738,302.081 C312.738,301.697 311.979,300.723 311.05,299.917 L309.363,298.45 L313.243,298.921 C317.83,299.479 320.492,298.416 325.363,294.082 C327.151,292.491 329.941,290.591 331.564,289.859 C333.842,288.832 334.413,288.215 334.075,287.149 C333.239,284.515 336.427,285.614 338.562,288.695 C342.026,293.693 344.25,304.806 342.197,306.859 C340.794,308.262 339.738,306.831 339.738,303.531 C339.738,299.839 338.747,296.032 337.153,293.599 C336.164,292.09 335.699,291.952 333.565,292.539 C331.114,293.213 322.941,301.182 323.603,302.252 C323.783,302.544 326.466,303.535 329.564,304.455 C335.676,306.269 338.451,308.615 339.355,312.73 C339.818,314.841 343.519,318.768 345.046,318.768 C345.426,318.768 345.738,319.145 345.738,319.606 C345.738,320.097 345.119,320.252 344.238,319.981 C343.413,319.726 342.096,319.319 341.312,319.075 C340.168,318.72 339.78,319.121 339.342,321.114 C338.802,323.573 338.784,323.554 337.355,318.899 C336.203,315.147 335.506,314.044 333.888,313.414 C331.099,312.328 322.909,313.07 320.538,314.623 C318.748,315.796 318.63,316.189 319.099,319.397 C319.381,321.32 319.894,323.187 320.239,323.545 C320.593,323.913 322.516,323.801 324.656,323.288 C326.74,322.788 328.835,322.509 329.311,322.668 C330.183,322.958 324.496,328.142 317.693,333.258 C314.175,335.903 312.738,336.566 312.738,335.544 z M361.445,325.03 C360.281,321.97 360.963,321.388 363.328,323.423 C364.574,324.495 365.252,325.639 364.939,326.145 C364.003,327.66 362.23,327.094 361.445,325.03 z M219.346,420.804 C229.462,410.717 237.738,402.35 237.738,402.21 C237.738,402.07 235.57,400.983 232.92,399.794 C230.27,398.605 227.735,396.946 227.286,396.108 C226.346,394.352 224.638,374.538 223.581,353.139 C223.181,345.024 222.491,337.708 222.048,336.881 C220.893,334.723 193.667,314.268 191.95,314.268 C191.648,314.268 190.441,316.546 189.266,319.331 C188.091,322.115 181.98,334.65 175.684,347.185 C169.389,359.721 164.238,370.255 164.238,370.593 C164.238,370.931 165.901,372.764 167.934,374.665 C172.727,379.148 177.563,386.62 178.93,391.654 C180.002,395.603 180.32,397.638 182.597,415.143 C183.872,424.945 184.672,428.027 186.277,429.308 C192.943,434.629 199.796,439.54 200.31,439.363 C200.664,439.242 209.23,430.89 219.346,420.804 z M199.113,417.931 C196.644,415.811 193.488,411.723 193.488,410.644 C193.488,409.298 213.528,393.55 214.487,394.143 C216.417,395.336 214.771,397.646 208.033,403.202 C204.07,406.47 200.358,409.413 199.783,409.743 C198.171,410.668 198.513,411.616 201.363,414.119 C204.209,416.618 204.663,418.099 202.802,418.813 C201.125,419.456 200.799,419.378 199.113,417.931 z M190.064,401.035 C187.973,395.588 186.978,390.737 187.755,389.778 C188.227,389.195 193.927,385.992 200.422,382.661 C211.724,376.866 212.267,376.671 213.043,378.12 C213.489,378.954 213.673,380.106 213.452,380.681 C213.232,381.256 208.312,384.101 202.519,387.002 C196.727,389.904 191.988,392.571 191.988,392.929 C191.988,393.287 192.504,395.041 193.134,396.828 C193.764,398.615 194.113,400.513 193.908,401.047 C193.422,402.313 190.551,402.304 190.064,401.036 z M184.988,379.768 C184.713,379.493 184.488,378.539 184.488,377.647 C184.488,376.306 186.608,374.951 196.783,369.786 C209.343,363.411 211.837,362.798 211.353,366.202 C211.159,367.569 208.739,369.069 198.738,374.02 C185.322,380.662 185.717,380.497 184.988,379.768 z M184.049,370.787 C183.189,370.6 180.827,368.745 178.799,366.665 L175.113,362.884 L180.363,358.264 C183.25,355.722 188.504,350.859 192.037,347.456 C195.57,344.053 198.832,341.268 199.286,341.268 C200.357,341.268 204.47,346.467 205.461,349.071 C206.916,352.9 202.934,358.518 198.764,358.518 C197.543,358.518 197.237,359.005 197.235,360.956 C197.232,363.833 195.049,367.702 192.478,369.387 C190.502,370.682 186.564,371.336 184.049,370.787 z M190.147,364.177 C192.36,361.965 192.404,361.448 190.573,359.187 L189.159,357.44 L186.137,360.042 C182.624,363.066 182.358,363.985 184.675,365.103 C187.235,366.337 188.14,366.184 190.147,364.177 z M199.321,353.601 C201.065,352.379 201.58,349.223 200.177,348.355 C199.251,347.783 194.988,351.575 194.988,352.971 C194.988,353.772 195.958,354.514 197.259,354.709 C197.476,354.742 198.404,354.243 199.321,353.601 z M411.249,391.972 C412.224,390.691 413.732,388.249 414.6,386.545 C416.167,383.466 416.168,383.437 414.703,382.112 C413.079,380.642 413.083,380.641 411.773,383.157 C411.267,384.126 409.234,387.164 407.254,389.907 C405.274,392.649 403.434,395.625 403.165,396.519 C402.749,397.903 402.916,398.081 404.291,397.722 C405.773,397.334 405.864,397.508 405.405,399.846 C404.954,402.14 405.131,401.992 407.19,398.347 C408.447,396.121 410.274,393.253 411.249,391.972 z M418.496,393.002 C419.75,390.518 420.409,388.403 420.006,388.154 C419.311,387.725 416.242,393.087 415.13,396.675 C414.145,399.85 416.135,397.679 418.496,393.002 z M433.622,392.019 C434.386,390.59 433.47,389.496 423.689,380.144 L412.915,369.843 L412.095,372.243 C411.03,375.361 411.607,376.183 422.074,386.47 C430.604,394.853 431.798,395.426 433.622,392.019 z M427.53,370.428 C428.733,366.971 429.716,362.793 429.714,361.143 L429.708,358.143 L427.425,361.779 C425.219,365.292 425.093,365.371 423.696,364.106 C422.481,363.007 422.324,362.164 422.714,358.848 C423.128,355.322 422.551,348.95 421.878,349.629 C421.735,349.774 421.049,353.235 420.354,357.319 C419.659,361.403 418.612,366.1 418.027,367.758 C417.022,370.606 417.057,370.876 418.663,372.656 C421.824,376.162 424.109,377.916 424.726,377.314 C425.065,376.983 426.326,373.885 427.529,370.428 z M415.947,352.518 C415.394,345.839 414.668,342.064 413.837,341.55 C412.52,340.736 412.489,341.78 413.608,349.206 C414.225,353.296 414.765,358.162 414.809,360.018 L414.889,363.393 L415.619,360.393 C416.021,358.743 416.168,355.199 415.947,352.518 z M87.403,319.365 C96.693,309.025 101.326,303.072 107.481,293.565 C108.647,291.765 111.803,284.971 114.496,278.468 C121.593,261.326 126.713,249.664 128.083,247.518 C128.742,246.487 132.085,239.973 135.511,233.044 C142.51,218.891 146.636,212.438 154.401,203.501 C157.336,200.123 159.729,197.086 159.719,196.751 C159.709,196.417 156.587,195.156 152.782,193.95 C144.128,191.206 132.508,185.934 121.834,179.907 C117.312,177.354 111.54,174.137 109.006,172.759 L104.399,170.253 L100.7,174.573 C95.833,180.255 86.372,192.856 82.917,198.258 C80.721,201.692 67.75,226.826 53.451,255.354 C47.311,267.605 35.267,282.223 24.068,291.018 C21.179,293.287 18.798,295.409 18.776,295.735 C18.731,296.429 22.128,298.509 33.213,304.575 C37.668,307.013 42.562,310 44.088,311.212 C45.614,312.423 50.744,315.583 55.488,318.233 C60.232,320.883 66.813,324.788 70.113,326.91 C73.413,329.032 76.348,330.768 76.634,330.768 C76.921,330.768 81.767,325.637 87.403,319.365 z M69.212,297.146 C65.17,293.935 60.26,290.214 58.3,288.877 C56.341,287.54 54.738,285.902 54.738,285.238 C54.738,284.037 59.27,277.57 62.943,273.531 C65.655,270.547 68.603,269.143 70.928,269.726 C72.948,270.233 75.73,273.949 75.735,276.145 C75.737,277.301 75.968,277.307 78.71,276.23 C84.564,273.93 88.989,278.036 88.307,285.135 C87.97,288.642 87.415,289.66 80.613,299.242 C77.547,303.562 77.21,303.5 69.212,297.146 z M81.266,288.502 C82.56,285.839 82.065,283.723 79.995,283.066 C78.746,282.67 77.741,283.308 75.201,286.114 C73.434,288.066 71.988,290.104 71.988,290.642 C71.988,291.18 73.085,292.327 74.425,293.19 L76.863,294.758 L78.545,292.701 C79.469,291.569 80.694,289.68 81.266,288.502 z M68.978,284.659 C72.871,278.36 68.568,275.159 64.24,281.134 L61.892,284.376 L63.752,285.805 C66.358,287.807 67.138,287.636 68.978,284.659 z M89.613,269.573 C86.725,267.759 81.916,264.915 78.925,263.252 C75.935,261.59 73.488,259.807 73.488,259.291 C73.488,258.034 75.641,255.018 76.538,255.018 C76.932,255.018 80.203,256.822 83.808,259.026 C87.413,261.23 92.304,264.124 94.675,265.456 C99.031,267.902 99.624,268.928 98.212,271.567 C97.096,273.653 95.53,273.29 89.613,269.573 z M100.288,254.245 C98.321,253.01 93.695,250.475 90.006,248.612 C86.317,246.749 83.088,244.882 82.829,244.463 C82.225,243.486 84.477,240.018 85.716,240.018 C86.235,240.018 90.27,241.887 94.683,244.171 L102.707,248.324 L104.785,244.557 C105.928,242.485 107.307,240.785 107.85,240.779 C109.511,240.762 111.738,242.26 111.738,243.396 C111.738,245.153 105.654,256.519 104.722,256.504 C104.249,256.495 102.254,255.479 100.288,254.245 z M103.863,229.299 C97.896,226.227 93.268,223.379 93.144,222.703 C93.024,222.048 93.53,220.765 94.269,219.853 L95.613,218.193 L103.981,222.3 C108.584,224.559 112.578,226.179 112.857,225.9 C113.136,225.621 114.485,222.969 115.854,220.007 C117.879,215.625 118.608,214.69 119.765,214.993 C120.547,215.197 121.581,215.995 122.063,216.766 C122.784,217.922 122.439,219.261 120.092,224.405 C118.527,227.836 116.858,231.571 116.383,232.706 C115.909,233.84 115.26,234.754 114.942,234.736 C114.623,234.719 109.638,232.272 103.863,229.299 z M194.855,303.86 C195.21,300.145 193.849,299.263 192.208,302.146 C190.888,304.464 188.988,305.356 188.988,303.657 C188.988,303.183 190.507,300.009 192.363,296.604 C194.219,293.198 195.738,290.211 195.738,289.965 C195.738,289.719 194.641,289.517 193.3,289.515 C191.96,289.513 186.982,288.14 182.238,286.463 C177.494,284.787 169.563,282.072 164.613,280.43 C154.731,277.152 140.235,270.568 132.933,266.043 C128.754,263.454 128.339,262.981 129.059,261.635 C129.863,260.133 129.872,260.132 131.49,261.609 C133.462,263.411 137.513,265.518 139.005,265.518 C139.879,265.518 140.018,264.657 139.703,261.191 C139.437,258.25 139.702,255.712 140.532,253.268 C142.469,247.561 142.299,244.283 139.883,240.796 C138.728,239.131 137.348,237.768 136.815,237.768 C135.081,237.768 119.988,270.086 119.988,273.798 C119.988,276.159 124.817,279.717 140.988,289.271 C152.923,296.322 157.107,298.208 168.976,301.886 C180.689,305.516 186.319,306.712 190.863,306.537 C194.542,306.395 194.618,306.344 194.855,303.86 z M460.534,292.688 C459.559,289.067 453.733,281.251 448.504,276.55 C445.109,273.497 443.33,272.628 434.912,269.909 C429.585,268.188 424.981,267.025 424.681,267.325 C423.88,268.126 427.11,270.426 433.488,273.597 L439.113,276.393 L434.613,276.768 L430.113,277.143 L433.113,279.093 C434.763,280.166 438.307,281.807 440.988,282.74 C451.503,286.401 454.887,288.46 457.932,293.046 C460.949,297.592 461.822,297.472 460.534,292.688 z M176.959,279.26 C179.619,275.878 183.033,267.983 183.485,264.168 C183.913,260.553 183.621,259.706 179.471,252.521 C178.981,251.672 178.748,250.704 178.954,250.371 C179.664,249.223 182.279,251.348 184.694,255.034 C187.577,259.438 190.846,261.018 197.066,261.018 C205.385,261.016 214.522,254.796 224.607,242.268 C226.766,239.587 232.459,233.418 237.26,228.56 C243.723,222.02 245.988,219.24 245.988,217.849 C245.988,216.816 245.493,215.781 244.888,215.549 C243.29,214.936 227.393,220.37 223.807,222.756 C218.842,226.06 217.132,226.177 212.961,223.501 C205.225,218.536 196.792,220.067 189.814,227.703 C187.46,230.278 185.988,232.658 185.657,234.421 C185.003,237.907 183.681,240.821 182.956,240.374 C182.15,239.875 183.236,235.667 185.121,231.986 C187.214,227.897 187.17,227.542 184.502,227.008 C181.726,226.453 179.774,224.248 176.285,217.727 C172.739,211.102 168.844,208.878 160.863,208.923 C151.758,208.973 146.512,213.065 145.72,220.732 C144.674,230.868 149.442,239.51 159.982,246.581 C164.797,249.811 166.431,250.518 169.078,250.518 C171.036,250.518 172.673,250.962 173.241,251.647 C174.876,253.617 173.646,259.508 169.685,268.677 C165.522,278.312 165.511,278.174 170.656,280.028 C174.855,281.541 175.198,281.499 176.959,279.26 z M434.497,256.777 C435.798,257.015 437.707,257.439 438.738,257.718 C440.508,258.198 440.466,258.07 437.988,255.443 C434.296,251.529 427.15,246.909 423.877,246.322 C419.546,245.545 418.493,244.753 420.7,243.932 L422.538,243.249 L420.7,242.059 C419.69,241.405 417.935,240.642 416.8,240.363 C415.666,240.084 414.738,239.55 414.738,239.177 C414.738,238.373 420.198,235.795 423.284,235.144 C424.822,234.819 425.222,234.452 424.655,233.885 C424.215,233.445 424.028,232.635 424.239,232.085 C425.139,229.739 414.494,234.191 402.919,241.001 C397.663,244.093 392.182,247.15 390.738,247.795 L388.113,248.967 L391.113,248.551 C392.763,248.322 396.52,247.019 399.462,245.655 C406.377,242.45 409.346,241.775 409.921,243.275 C410.504,244.793 409.071,247.311 407.306,247.872 C405.917,248.312 403.077,251.858 403.652,252.433 C403.809,252.589 405.607,251.862 407.65,250.817 C410.444,249.388 412.049,249.024 414.133,249.345 C416.997,249.787 423.38,252.969 428.613,256.563 C431.026,258.221 431.664,258.401 431.872,257.485 C432.064,256.641 432.746,256.458 434.497,256.777 z M321.121,236.643 C324.884,234.374 328.244,232.518 328.587,232.518 C328.931,232.518 331.496,231.107 334.287,229.382 C346.254,221.987 363.682,212.708 377.227,206.518 C381.965,204.353 385.944,202.274 386.069,201.899 C386.489,200.639 377.178,184.323 369.089,172.143 C352.802,147.621 343.035,135.67 334.478,129.793 C328.137,125.439 307.492,116.041 296.613,112.557 C291.25,110.839 285.513,109.004 283.863,108.479 C282.213,107.953 275.235,105.601 268.356,103.251 L255.849,98.98 L249.231,101.707 C245.591,103.206 241.769,104.894 240.738,105.456 C236.26,107.898 219.897,115.282 208.488,120.008 C184.968,129.752 183.385,130.453 183.124,131.234 C182.981,131.665 183.076,132.018 183.336,132.018 C183.596,132.018 187.589,132.691 192.211,133.513 C196.832,134.335 205.143,135.688 210.68,136.519 C229.02,139.272 248.253,145.06 261.689,151.868 C265.879,153.992 267.839,156.57 276.531,171.393 C282.795,182.073 300.727,215.969 304.902,225.018 C307.67,231.017 313.282,240.768 313.967,240.768 C314.138,240.768 317.358,238.912 321.121,236.643 z M316.209,194.456 C315.221,192.909 312.684,189.317 310.572,186.474 C307.622,182.503 306.924,181.073 307.56,180.306 C308.016,179.757 311.14,177.756 314.501,175.86 C317.863,173.964 322.975,170.917 325.863,169.09 C333.362,164.344 337.199,162.497 338.514,163.001 C339.954,163.554 342.206,167.809 341.588,168.809 C341.334,169.22 338.873,170.733 336.12,172.171 C322.619,179.225 317.592,182.238 317.353,183.417 C317.21,184.124 317.756,185.6 318.566,186.696 C319.377,187.792 320.757,190.096 321.634,191.814 L323.228,194.94 L321.566,196.104 C319.095,197.835 318.191,197.557 316.209,194.456 z M296.522,168.206 C294.134,165.421 291.565,162.436 290.813,161.572 C290.061,160.708 289.633,159.514 289.862,158.917 C290.09,158.321 296.259,154.525 303.57,150.48 C310.881,146.436 317.811,142.568 318.969,141.885 C321.027,140.672 321.119,140.693 322.942,142.788 C323.968,143.968 324.693,145.278 324.552,145.7 C324.412,146.121 322.41,147.519 320.104,148.805 C308.13,155.483 304.583,157.582 301.638,159.73 L298.413,162.082 L300.877,165.238 C302.232,166.973 303.768,168.839 304.29,169.384 C305.609,170.764 305.476,171.588 303.787,172.492 C301.454,173.74 301.081,173.52 296.522,168.206 z M272.36,149.623 C270.978,149.022 269.998,148.114 270.171,147.593 C270.344,147.075 273.688,144.793 277.601,142.522 C281.515,140.251 287.225,136.667 290.29,134.557 C299.265,128.38 300.044,128.084 303.068,129.706 C304.468,130.457 305.613,131.421 305.613,131.849 C305.613,132.532 298.332,138.018 297.426,138.018 C297.026,138.018 284.155,146.001 279.96,148.852 C276.739,151.041 275.836,151.132 272.36,149.623 z M251.627,140.464 C249.099,140.092 236.359,135.223 234.925,134.081 C234.41,133.671 233.988,133.05 233.988,132.703 C233.988,132.355 237.817,130.195 242.496,127.902 C247.176,125.61 254.664,121.557 259.136,118.897 C265.422,115.157 267.703,114.16 269.19,114.502 C272.797,115.331 279.615,118.666 281.24,120.395 C284.638,124.012 281.395,128.047 274.404,128.9 C270.727,129.349 270.342,129.574 270.131,131.401 C269.824,134.056 264.231,139.172 260.504,140.207 C257.592,141.016 255.737,141.069 251.627,140.464 z M260.821,133.101 C261.738,132.459 262.488,131.465 262.488,130.893 C262.488,129.493 259.552,127.518 257.469,127.518 C255.749,127.518 250.04,130.172 249.347,131.295 C249.135,131.636 249.719,132.445 250.642,133.092 C252.802,134.604 258.667,134.609 260.821,133.101 z M272.884,123.306 C274.934,121.87 274.328,121.062 270.702,120.396 C268.682,120.026 267.613,120.254 266.27,121.342 C265.262,122.158 264.731,123.15 265.038,123.647 C265.829,124.927 270.883,124.708 272.884,123.306 z M228.366,217.452 C232.856,215.773 239.758,209.967 238.906,208.587 C238.555,208.02 230.28,207.768 212.027,207.768 C185.995,207.768 185.674,207.788 187.134,209.21 C189.083,211.11 202.414,216.631 208.113,217.898 C215.18,219.47 223.462,219.287 228.366,217.452 z M278.164,193.893 C279.256,192.798 277.062,188.696 274.709,187.434 C272.5,186.249 275.633,186.28 193.863,186.631 C160.329,186.775 138.957,187.136 139.863,187.542 C140.688,187.911 144.738,189.492 148.863,191.053 L156.363,193.893 L197.613,194.298 C256.545,194.876 277.287,194.772 278.164,193.893 z M402.363,193.156 C415.696,192.703 420.738,191.893 420.738,190.205 C420.738,189.162 418.764,188.205 413.583,186.735 C410.344,185.816 381.538,185.966 380.599,186.906 C379.849,187.657 383.272,193.404 384.671,193.745 C385.326,193.904 386.707,193.935 387.738,193.812 C388.769,193.69 395.35,193.395 402.363,193.156 z M85.043,189.766 C86.525,187.703 87.738,185.678 87.738,185.266 C87.738,184.297 70.858,184.282 64.972,185.247 C59.619,186.123 58.206,187.091 59.299,189.133 C60.711,191.771 66.765,193.309 76.23,193.437 L82.347,193.519 L85.043,189.767 z M249.864,184.055 C264.75,183.609 266.146,183.452 266.474,182.196 C266.672,181.441 266.374,180.442 265.813,179.976 C264.15,178.596 226.877,178.011 161.613,178.339 L122.613,178.536 L127.854,181.449 L133.096,184.362 L183.354,184.452 C210.997,184.502 240.926,184.323 249.864,184.055 z M90.735,181.896 C91.702,180.867 92.295,179.826 92.053,179.583 C91.479,179.009 78.335,180.579 75.175,181.598 C70.724,183.034 72.645,183.768 80.857,183.768 C88.545,183.768 89.07,183.669 90.735,181.896 z M390.363,182.257 C392.656,181.415 386.952,180.028 381.175,180.022 C376.164,180.017 376.065,180.077 377.286,182.358 C378.012,183.715 378.57,183.803 383.474,183.329 C386.438,183.042 389.538,182.56 390.363,182.257 z M436.783,182.582 C437.69,180.218 437.18,179.297 433.899,177.375 C429.765,174.952 421.718,173.616 402.363,172.137 C390.355,171.22 373.132,171.252 372.09,172.193 C371.94,172.328 372.558,173.638 373.464,175.104 L375.11,177.768 L382.198,177.768 C390.024,177.768 428.535,181.84 431.342,182.964 C434.056,184.051 436.279,183.895 436.783,182.582 z M257.425,176.323 C261.345,176.263 261.878,175.293 260.118,171.428 C259.183,169.377 259.141,169.365 252.363,169.141 C249.888,169.06 242.294,168.622 235.488,168.169 C223.833,167.393 173.373,166.146 158.613,166.269 C100.399,166.754 97.365,166.869 91.909,168.801 C89.047,169.814 86.586,171.024 86.44,171.489 C86.294,171.954 88.298,173.186 90.894,174.228 L95.613,176.121 L99.882,172.058 L104.151,167.995 L108.848,171.031 C111.432,172.701 114.236,174.232 115.079,174.434 C120.165,175.651 137.909,176.055 188.496,176.104 C219.782,176.135 245.488,176.269 245.621,176.402 C245.754,176.535 247.662,176.584 249.862,176.511 C252.063,176.438 255.466,176.354 257.425,176.324 z M428.1,170.456 C427.912,168.818 427.281,168.203 425.04,167.472 C420.345,165.939 404.759,163.518 399.655,163.528 C395.249,163.536 373.862,167.394 372.904,168.353 C372.675,168.581 378.561,168.768 385.983,168.768 C399.712,168.768 410.92,169.609 420.363,171.349 C428.376,172.825 428.373,172.825 428.1,170.456 z M82.655,166.331 C85.819,163.753 88.426,161.36 88.448,161.013 C88.47,160.667 87.748,159.784 86.843,159.052 L85.198,157.72 L88.343,155.735 C90.073,154.643 91.488,153.235 91.488,152.607 C91.488,151.959 89.946,150.803 87.925,149.935 C84.649,148.528 84.474,148.324 85.741,147.393 C86.499,146.837 89.453,145.988 92.304,145.507 C100.038,144.203 99.339,143.439 89.238,142.155 C84.813,141.593 80.461,140.062 78.927,138.528 C77.786,137.388 77.791,137.098 78.999,134.565 C79.716,133.062 80.203,131.758 80.083,131.667 C78.727,130.644 70.041,123.584 67.234,121.223 C61.814,116.665 61.756,116.338 65.484,111.274 C69.65,105.615 76.078,101.106 80.132,101 C83.546,100.91 86.238,102.832 86.238,105.359 C86.238,106.735 86.593,106.925 88.702,106.679 C91.77,106.321 94.414,108.297 95.111,111.468 L95.613,113.757 L98.765,111.755 L101.917,109.754 L95.577,101.438 C92.091,96.865 89.238,92.873 89.238,92.567 C89.238,91.611 91.675,89.268 92.669,89.268 C93.452,89.268 97.231,93.937 104.892,104.367 C106.291,106.272 108.83,106.127 113.248,103.888 L116.959,102.008 L111.08,92.787 C102.598,79.484 102.957,80.419 105.849,79.203 C107.188,78.64 108.722,78.347 109.257,78.552 C109.792,78.757 111.769,81.506 113.65,84.659 C115.532,87.813 117.98,91.482 119.092,92.814 L121.113,95.235 L124.311,93.783 C129.161,91.583 132.738,91.063 132.738,92.56 C132.738,94.09 134.422,94.1 137.348,92.586 C139.98,91.225 140.102,91.982 135.417,80.643 C133.542,76.106 132.003,71.794 131.998,71.062 C131.987,69.646 135.085,68.065 136.674,68.675 C137.196,68.875 138.943,72.424 140.555,76.561 C142.168,80.698 143.773,84.26 144.122,84.476 C144.471,84.692 146.622,84.171 148.901,83.318 C153.843,81.469 155.906,81.369 157.041,82.922 C157.801,83.961 158.212,83.961 161.156,82.922 C166.255,81.123 169.555,81.467 175.413,84.407 C180.683,87.052 194.795,92.268 196.681,92.268 C197.233,92.268 202.732,89.453 208.899,86.012 C219.882,79.885 241.537,67.729 246.738,64.772 C249.548,63.174 258.185,53.444 257.614,52.52 C257.426,52.215 255.933,51.751 254.297,51.49 C250.459,50.876 235.097,42.964 224.863,36.329 C220.463,33.477 213.481,29.02 209.347,26.424 C205.213,23.829 200.13,20.176 198.051,18.307 C195.972,16.438 193.949,15.108 193.554,15.352 C193.16,15.596 188.05,21.747 182.199,29.021 L171.56,42.246 L174.836,41.787 C176.638,41.534 179.294,41.097 180.738,40.815 C185.046,39.974 182.678,41.363 176.057,43.561 C172.65,44.692 164.463,47.862 157.863,50.606 C147.643,54.854 138.188,58.657 125.988,63.425 C124.544,63.99 119.313,65.836 114.363,67.528 C93.69,74.596 90.839,76.012 82.378,83.418 C75.21,89.693 65.341,97.551 55.961,104.452 C53.861,105.997 49.943,109.542 47.253,112.331 C44.564,115.12 39.368,119.931 35.707,123.023 C26.546,130.759 16.98,139.453 16.286,140.672 C15.856,141.428 19.218,143.41 29.529,148.477 C37.129,152.212 43.581,155.268 43.866,155.268 C44.152,155.268 47.305,157.072 50.874,159.276 C54.443,161.48 59.894,164.449 62.988,165.874 C66.082,167.299 69.794,169.017 71.238,169.693 C72.682,170.369 74.547,170.944 75.383,170.97 C76.218,170.996 79.491,168.909 82.655,166.331 z M382.863,163.166 C390.019,161.592 396.528,159.685 398.988,158.441 C402.563,156.633 403.144,156.032 403.348,153.931 C403.511,152.255 403.218,151.367 402.396,151.052 C401.112,150.559 394.055,152.93 388.25,155.805 C386.263,156.79 380.441,158.957 375.312,160.622 C370.184,162.287 365.988,163.89 365.988,164.184 C365.988,165.366 367.842,166.461 369.307,166.143 C370.163,165.957 376.263,164.617 382.863,163.166 z M262.307,164.699 C262.522,164.484 261.995,162.697 261.138,160.726 L259.578,157.143 L251.846,157.352 C247.593,157.467 222.815,157.682 196.783,157.831 C170.752,157.98 148.477,158.314 147.283,158.574 C146.09,158.834 138.869,158.536 131.238,157.912 C123.607,157.288 114.663,156.771 111.363,156.763 C104.447,156.746 91.488,158.315 91.488,159.169 C91.488,159.486 93.503,160.764 95.967,162.007 L100.445,164.268 L139.279,164.364 C160.638,164.416 181.825,164.669 186.363,164.926 C195.984,165.471 261.732,165.274 262.307,164.699 z M368.151,159.824 C369.643,159.443 372.382,158.746 374.238,158.275 C376.094,157.805 381.653,155.866 386.591,153.966 C397.545,149.753 401.361,146.719 401.514,142.101 L401.613,139.143 L398.238,139.183 C395.797,139.211 392.268,140.397 385.488,143.468 C380.332,145.803 372.4,149.106 367.863,150.807 C363.325,152.509 359.479,154.033 359.316,154.194 C358.67,154.831 363.084,160.518 364.224,160.518 C364.892,160.518 366.659,160.206 368.151,159.824 z M242.8,154.833 C246.773,154.406 247.19,153.98 246.768,150.768 C246.317,147.335 247.2,147.4 198.899,147.286 C173.854,147.227 140.538,147.086 124.863,146.973 C109.188,146.86 95.231,147.027 93.848,147.345 C91.356,147.916 91.402,147.955 98.843,151.52 L106.353,155.119 L119.607,155.13 C126.897,155.136 132.988,155.268 133.142,155.423 C133.587,155.867 238.415,155.303 242.8,154.833 z M365.653,149.727 C374.321,146.774 383.639,142.669 383.038,142.068 C382.809,141.839 379.639,142.22 375.993,142.914 C372.346,143.608 365.565,144.246 360.923,144.331 C356.281,144.416 352.4,144.68 352.298,144.918 C352.043,145.514 356.949,152.268 357.637,152.268 C357.943,152.268 361.55,151.125 365.653,149.727 z M209.988,144.553 C209.988,142.665 205.397,138.858 201.598,137.597 C198.189,136.464 193.343,136.35 154.58,136.488 C130.811,136.572 109.055,136.866 106.234,137.142 L101.105,137.643 L105.95,141.195 L110.796,144.747 L134.329,144.945 C210.706,145.588 209.988,145.592 209.988,144.553 z M437.975,144.582 C437.966,144.066 434.439,141.331 430.133,138.503 C425.828,135.676 418.325,130.157 413.459,126.238 C401.851,116.889 398.503,114.62 396.738,114.907 C394.562,115.26 395.531,116.176 404.613,122.358 C413.31,128.278 429.056,139.713 433.488,143.328 C436.301,145.622 437.996,146.096 437.975,144.582 z M86.308,136.584 C91.778,134.65 102.358,129.967 111.412,125.471 C115.51,123.437 121.225,120.81 124.113,119.634 C132.934,116.041 171.665,95.849 172.584,94.364 C172.928,93.807 172.776,92.985 172.227,92.436 C170.558,90.766 161.75,94.042 137.988,105.171 C134.482,106.813 130.092,108.763 128.233,109.504 C126.374,110.246 120.974,112.703 116.233,114.965 C111.492,117.228 105.588,119.982 103.113,121.086 C96.79,123.907 85.333,130.94 82.866,133.516 C81.615,134.821 80.971,136.143 81.242,136.848 C81.794,138.287 81.44,138.306 86.308,136.584 z M120.696,130.452 C136.464,125.211 150.444,118.356 165.363,108.55 C174.503,102.543 178.488,99.192 178.488,97.512 C178.488,95.008 177.1,95.137 171.935,98.122 C169.145,99.735 163.758,102.595 159.964,104.478 C156.17,106.362 149.835,109.831 145.887,112.187 C141.938,114.543 134.58,118.215 129.535,120.347 C119.071,124.77 109.823,129.37 109.124,130.499 C108.338,131.771 109.449,132.768 111.653,132.768 C112.794,132.768 116.864,131.726 120.696,130.452 z M354.738,130.867 C358.244,130.279 364.488,129.248 368.613,128.577 C375.114,127.518 383.879,125.073 390.919,122.354 C392.829,121.617 392.911,121.412 392.08,119.477 C391.587,118.331 391.141,117.309 391.087,117.207 C391.034,117.104 388.983,117.836 386.529,118.834 C382.518,120.463 364.023,124.345 348.517,126.812 C342.616,127.751 341.238,128.665 341.238,131.64 C341.238,132.991 342.513,132.918 354.738,130.867 z M109.113,116.535 C117.363,112.46 127.488,107.717 131.613,105.993 C135.738,104.27 144.344,100.67 150.738,97.993 C157.132,95.317 164.384,92.29 166.855,91.268 C174.336,88.172 174.335,85.553 166.854,85.53 C163.127,85.518 154.984,87.762 148.488,90.59 C141.365,93.69 119.216,104.786 110.613,109.562 C105.663,112.311 99.588,115.597 97.113,116.864 C94.26,118.325 92.012,120.118 90.97,121.764 C87.839,126.713 89.434,126.253 109.113,116.535 z M84.649,120.939 C87.854,117.89 89.232,114.462 87.82,113.05 C86.016,111.247 77.988,117.638 77.988,120.876 C77.988,122.218 79.459,123.768 80.731,123.768 C81.25,123.768 83.013,122.495 84.649,120.939 z M346.488,120.809 C358.31,120.084 360.94,119.444 362.266,116.967 C363.662,114.357 361.747,113.215 354.638,112.418 C349.989,111.897 345.495,112.013 337.294,112.866 C331.205,113.5 323.021,114.018 319.106,114.018 C311.779,114.018 310.157,114.783 314.425,116.226 C315.766,116.679 318.719,118.241 320.988,119.696 C324.963,122.246 325.303,122.326 330.363,121.909 C333.25,121.671 340.507,121.176 346.488,120.809 z M76.049,113.355 C78.963,109.385 79.364,108.018 77.615,108.018 C75.997,108.018 70.488,113.207 70.488,114.73 C70.488,118.278 72.867,117.689 76.049,113.355 z M216.716,114.797 C217.323,114.414 217.661,113.959 217.466,113.788 C217.272,113.616 212.557,111.54 206.988,109.174 C201.419,106.808 193.4,103.078 189.168,100.883 C182.093,97.215 181.415,97.003 180.746,98.252 C179.91,99.816 179.789,99.692 186.867,104.517 C192.846,108.592 196.311,110.387 201.448,112.067 C204.466,113.053 213.122,115.175 215.238,115.447 C215.444,115.473 216.109,115.181 216.716,114.797 z M334.113,109.9 C339.888,109.302 347.546,108.803 351.131,108.79 C354.733,108.778 357.861,108.425 358.123,108.002 C358.383,107.581 357.981,105.978 357.23,104.44 C355.897,101.713 355.769,101.648 352.113,101.843 C350.05,101.953 346,102.527 343.113,103.12 C331.711,105.459 325.134,105.981 306.175,106.052 C295.347,106.092 286.488,106.313 286.488,106.542 C286.488,106.959 292.078,108.903 296.988,110.193 C301.087,111.27 322.513,111.101 334.113,109.9 z M232.812,105.62 L238.863,103.973 L230.44,103.02 C217.387,101.542 202.816,97.652 187.66,91.596 C183.424,89.903 179.357,88.518 178.623,88.518 C176.909,88.518 175.488,89.946 175.488,91.668 C175.488,92.7 176.081,93.018 178.001,93.018 C179.384,93.018 182.168,93.916 184.189,95.013 C191.677,99.077 194.103,100.094 204.738,103.623 C217.662,107.912 223.001,108.292 232.812,105.62 z M233.955,97.912 C237.067,96.478 244.338,93.461 250.113,91.206 C275.734,81.206 291.392,74.538 304.488,68.051 L310.863,64.893 L311.094,61.706 C311.241,59.663 311.013,58.518 310.458,58.518 C309.982,58.518 307.009,59.846 303.853,61.47 C293.819,66.63 268.196,78.325 237.169,91.905 C228.812,95.562 222.231,98.802 222.544,99.104 C222.857,99.406 224.126,99.797 225.363,99.973 C226.601,100.149 227.767,100.344 227.955,100.406 C228.143,100.468 230.843,99.345 233.955,97.912 z M233.988,90.816 C242.444,87.038 250.713,83.312 252.363,82.536 C254.013,81.761 258.569,79.621 262.488,77.782 C266.407,75.942 278.635,70.033 289.662,64.65 L309.712,54.863 L307.716,51.815 C306.619,50.139 305.476,48.768 305.175,48.768 C304.875,48.768 303.332,49.425 301.746,50.227 C298.25,51.996 276.958,62.247 266.613,67.141 C252.317,73.905 214.481,95.637 213.891,97.424 C213.217,99.465 218.572,97.704 233.988,90.816 z M219.945,89.423 C225.812,86.16 233.65,81.713 237.363,79.541 C244.756,75.215 300.112,47.34 308.739,43.599 C311.695,42.317 314.66,41.268 315.326,41.268 C315.992,41.268 318.248,42.135 320.337,43.194 C322.427,44.253 324.258,44.998 324.407,44.849 C325.041,44.215 312.819,36.768 311.144,36.768 C309.132,36.768 295.779,42.014 292.133,44.237 C289.128,46.069 258.124,62.579 244.863,69.409 C239.088,72.384 230.482,77.094 225.738,79.878 C220.994,82.661 213.44,86.974 208.952,89.461 C201.026,93.854 200.842,94.014 202.577,95.012 C205.507,96.698 208.728,95.662 219.945,89.423 z M386.988,92.221 C386.988,91.831 385.216,90.763 383.05,89.848 C378.676,87.999 373.162,85.182 354.363,75.191 C340.84,68.003 329.814,62.023 325.488,59.529 C320.007,56.37 315.464,56.734 314.542,60.408 C313.924,62.871 316.082,65.317 320.466,67.125 C322.197,67.838 324.199,68.725 324.915,69.095 C325.631,69.465 329.681,71.081 333.915,72.686 C338.149,74.291 345.494,77.444 350.238,79.694 C363.296,85.888 365.562,86.819 376.113,90.324 C385.57,93.467 386.988,93.714 386.988,92.221 z M383.838,83.686 C385.196,82.402 384.287,81.765 375.936,78.143 C372.126,76.491 367.063,73.969 364.686,72.539 C362.308,71.109 354.457,67.043 347.238,63.502 C332.377,56.214 325.664,52.624 324.02,51.085 C323.398,50.503 321.066,48.86 318.838,47.435 C314.964,44.957 314.662,44.886 311.888,45.801 C309.972,46.433 308.988,47.209 308.988,48.087 C308.988,49.439 312.625,52.518 314.221,52.518 C319.731,52.518 355.962,70.323 374.591,82.185 C379.855,85.537 381.582,85.818 383.838,83.686 z M378.862,60.465 C385.551,59.185 392.906,56.672 394.434,55.144 C395.882,53.696 395.099,53.696 388.636,55.143 C371.863,58.899 352.351,57.514 337.494,51.513 C335.015,50.512 332.988,49.79 332.988,49.908 C332.988,50.233 344.274,57.383 346.963,58.762 C352.046,61.367 369.325,62.289 378.862,60.465 z M265.868,53.936 C267.769,52.653 269.181,51.461 269.006,51.286 C268.831,51.111 267.312,51.188 265.63,51.457 C263.136,51.856 262.434,52.345 261.819,54.107 C260.859,56.862 261.578,56.831 265.868,53.936 z M371.186,51.301 C376.551,50.106 377.988,49.241 377.988,47.206 C377.988,44.755 375.242,42.936 372.092,43.299 C370.534,43.479 360.508,43.855 349.811,44.135 L330.363,44.643 L333.988,46.813 C335.981,48.007 340.369,49.949 343.738,51.128 C349.496,53.144 350.356,53.245 358.113,52.823 C362.65,52.576 368.533,51.891 371.186,51.301 z M276.883,47.602 C280.262,47.336 282.997,46.734 283.482,46.15 C283.938,45.601 284.041,45.014 283.712,44.846 C283.382,44.678 274.844,44.732 264.738,44.967 C247.644,45.363 246.572,45.468 249.363,46.463 C255.186,48.538 261.615,48.805 276.883,47.602 z M284.062,42.01 C289.367,41.451 292.028,40.746 295.312,39.028 C302.588,35.221 306.374,33.017 305.601,33.037 C305.195,33.048 299.969,34.115 293.988,35.408 C283.388,37.7 282.534,37.767 260.238,38.042 C247.657,38.197 236.881,38.493 236.292,38.699 C233.989,39.505 237.607,41.484 242.374,42.025 C249.593,42.844 276.232,42.835 284.062,42.01 z M375.363,38.87 C380.435,37.549 380.988,37.084 380.988,34.143 C380.988,30.99 380.521,30.696 376.822,31.523 C369.807,33.091 350.075,34.519 333.869,34.632 L316.375,34.755 L319.619,37.665 L322.863,40.575 L347.238,40.211 C363.745,39.965 372.823,39.532 375.363,38.87 z M282.373,33.701 C294.578,29.412 319.001,22.947 338.613,18.816 C344.8,17.512 353.069,15.761 356.988,14.924 C360.907,14.088 367.91,12.234 372.55,10.806 C379.996,8.514 380.985,8.013 380.964,6.551 C380.95,5.639 380.451,4.247 379.853,3.457 C378.787,2.048 378.543,2.06 366.94,4.099 C353.634,6.437 345.373,8.266 328.436,12.621 C322.014,14.273 314.083,16.012 310.811,16.486 C300.278,18.013 282.86,21.769 266.988,25.936 C257.311,28.477 250.575,29.672 237.738,31.126 C231.757,31.804 226.572,32.645 226.218,32.996 C225.86,33.349 226.529,34.177 227.718,34.853 C229.619,35.933 232.6,36.025 253.911,35.662 C275.672,35.292 278.378,35.105 282.373,33.701 z M176.368,30.256 C178.336,28.506 181.759,23.289 181.264,22.795 C181.019,22.549 173.384,22.716 164.298,23.165 C147.047,24.017 143.35,24.755 141.798,27.655 C139.585,31.791 141.98,32.334 160.113,31.807 C171.866,31.466 175.385,31.13 176.368,30.256 z M235.488,28.953 C238.994,28.289 246.419,27.097 251.988,26.303 C262.642,24.785 267.934,23.393 267.807,22.143 C267.718,21.263 255.451,21.133 248.238,21.935 C245.557,22.234 236.452,22.845 228.004,23.294 C219.557,23.743 212.546,24.21 212.425,24.331 C212.303,24.453 214.321,25.968 216.909,27.699 C222.214,31.248 223.06,31.305 235.488,28.953 z M244.863,19.564 C274.739,17.912 282.802,17.136 304.286,13.845 C320.057,11.429 322.047,10.644 312.738,10.512 C211.046,9.06 174.088,9.12 158.06,10.761 C151.262,11.457 145.321,12.454 144.05,13.111 C141.463,14.449 140.576,16.596 141.723,18.74 C142.502,20.196 143.182,20.264 156.202,20.189 C163.715,20.145 173.353,19.892 177.618,19.626 L185.372,19.143 L188.868,15.191 C190.958,12.828 192.977,11.244 193.891,11.253 C194.75,11.262 197.655,13.449 200.52,16.245 L205.621,21.222 L218.117,20.787 C224.99,20.548 237.025,19.998 244.863,19.564 z" fill="#000000" id="path5681"/>
  </g>
</svg>
