<?xml version="1.0" encoding="UTF-8" standalone="no"?>
<svg id="svg4134" xmlns:rdf="http://www.w3.org/1999/02/22-rdf-syntax-ns#" xmlns="http://www.w3.org/2000/svg" height="319.62mm" width="131.23mm" version="1.1" xmlns:cc="http://creativecommons.org/ns#" xmlns:dc="http://purl.org/dc/elements/1.1/" viewBox="0 0 465.00001 1132.5">
<defs id="defs4136">
<filter id="filter5540" style="color-interpolation-filters:sRGB" height="1.5908" width="1.3713" y="-.29539" x="-.18565">
<feGaussianBlur id="feGaussianBlur5542" stdDeviation="23.175333"/>
</filter>
</defs>
<g id="layer1" transform="translate(132.5 -113.61)">
<g id="g4150">
<path id="rect5451" d="m35.176 308.57c35.514 163.8 111.67 278.57 197.32 278.57s161.81-114.77 197.32-278.57c-62.58 38.99-128.94 60.1-197.32 60.1s-134.74-21.11-197.32-60.1z" transform="translate(-132.5 113.61)" fill="#a00"/>
<path id="rect5233" d="m-49.802 470.31c34.953 114.69 89.059 188.3 149.8 188.3 60.743 0 114.85-73.612 149.8-188.3-40.32 73.76-92.63 118.3-149.8 118.3-57.169 0-109.48-44.541-149.8-118.3z" filter="url(#filter5540)" fill="#ffd5d5"/>
<path id="path4737" d="m-116.05 113.61c-10.701 57.295-16.28 118.34-16.45 180 0.12269 193.9 65.111 359.24 136.33 450 53.845 68.617 68.584 158.04 69.448 232.32-0.04966 90.919-18.271 181.53-66.911 227.79-27.642 26.29-73.313 31.507-116.36 37.852v4.5351h210 210v-4.5351c-43.051-6.3446-88.722-11.562-116.36-37.852-48.64-46.26-66.861-136.88-66.911-227.79 0.86413-74.279 15.604-163.7 69.448-232.32 71.217-90.755 136.2-256.1 136.33-450-0.16992-61.658-5.749-122.7-16.45-180h-2.5312c2.5313 29.661 3.864 59.786 3.9814 90 0 273.38-97.378 495-217.5 495s-217.5-221.62-217.5-495c0.11744-30.214 1.4502-60.339 3.9814-90h-2.5312z"/>
</g>
</g>
</svg>
